{"glyphs":{":":{"x_min":0,"x_max":89,"ha":89,"o":"m 13 100 q 21 100 24 109 q 28 122 28 124 q 28 126 26 130 q 23 136 16 136 q 6 136 4 127 q 0 115 0 112 q 0 109 1 105 q 4 100 13 100 z m 49 233 q 57 233 61 242 q 64 255 64 256 q 64 259 62 263 q 60 269 52 269 q 42 269 40 260 q 36 248 36 246 q 36 243 38 239 q 41 233 49 233 z"},"$":{"x_min":0,"x_max":402,"ha":402,"o":"m 81 -42 l 81 -42 q 89 -42 93 -34 l 350 637 q 351 642 349 646 q 347 651 342 653 q 337 655 332 653 q 328 651 326 646 l 69 -25 q 67 -30 70 -35 q 72 -40 77 -42 q 79 -42 81 -42 z m 157 -12 l 157 -12 q 228 -12 264 34 q 309 90 292 175 q 276 235 223 299 q 197 331 177 364 q 123 452 155 514 q 187 572 260 578 q 317 583 341 535 q 349 519 351 501 q 353 482 352 469 q 351 456 350 456 q 350 450 353 446 q 355 442 361 441 q 366 440 370 443 q 374 446 375 451 q 375 453 377 469 q 378 484 375 506 q 373 527 363 547 q 331 608 259 604 q 171 596 133 525 q 94 450 155 351 q 177 316 202 283 q 253 223 267 170 q 282 96 244 49 q 221 21 188 16 q 155 10 125 15 q 84 22 61 45 q 38 67 33 92 l 26 128 q 24 134 20 136 q 16 139 11 138 q 5 137 3 133 q 0 128 1 123 l 8 87 q 15 56 43 27 q 72 -1 121 -10 q 140 -12 157 -12 z"},"?":{"x_min":0,"x_max":429,"ha":429,"o":"m 42 46 l 42 46 q 49 46 54 54 q 52 54 96 154 q 129 209 219 257 q 278 291 330 333 q 374 373 389 419 q 405 465 403 502 q 401 540 393 555 q 373 593 340 613 q 308 633 247 630 q 214 628 192 607 q 169 586 155 560 q 141 533 135 512 q 128 491 128 488 q 127 483 130 479 q 132 474 138 473 q 143 472 147 475 q 151 478 152 482 q 153 484 158 502 q 164 520 175 543 q 187 566 205 585 q 223 603 249 605 q 300 608 326 592 q 353 576 371 542 q 377 531 378 499 q 378 467 365 427 q 351 387 313 353 q 264 312 206 279 q 110 229 72 165 q 29 63 30 63 q 28 58 30 53 q 32 49 37 47 q 40 46 42 46 z m 14 -46 l 14 -46 q 22 -46 26 -37 l 30 -24 q 31 -19 29 -14 q 26 -10 21 -8 q 16 -7 12 -9 q 7 -12 5 -17 l 1 -30 q 0 -35 2 -40 q 5 -44 10 -46 q 12 -46 14 -46 z"},"<":{"x_min":0,"x_max":342,"ha":342,"o":"m 245 55 l 245 55 q 252 55 257 63 q 258 69 256 73 q 254 78 249 80 l 48 153 l 309 259 q 313 261 315 265 q 317 270 315 275 q 313 280 309 282 q 304 284 299 282 l 8 164 q 0 161 0 152 q 0 144 8 141 l 240 56 q 243 55 245 55 z"},"'":{"x_min":0,"x_max":77,"ha":77,"o":"m 13 499 l 13 499 q 18 499 21 501 l 35 512 q 43 519 47 530 q 51 541 52 550 q 53 559 53 561 q 52 566 49 569 q 45 573 40 573 q 34 573 31 569 q 27 565 27 560 q 27 553 25 544 q 23 536 19 532 l 6 522 q 1 519 1 513 q 0 508 3 504 q 8 499 13 499 z"},"=":{"x_min":0,"x_max":243,"ha":243,"o":"m 186 194 l 186 194 q 189 194 193 198 q 196 202 196 207 q 196 212 193 216 q 189 219 186 219 l 23 219 q 19 219 15 216 q 12 212 12 207 q 12 202 15 198 q 19 194 23 194 z m 173 135 l 173 135 q 177 135 180 139 q 183 143 183 148 q 183 153 180 157 q 177 161 173 161 l 10 161 q 6 161 3 157 q 0 153 0 148 q 0 143 3 139 q 6 135 10 135 z"},"a":{"x_min":0,"x_max":228,"ha":228,"o":"m 128 88 l 128 88 q 136 88 140 96 l 201 240 q 203 245 201 250 q 200 254 195 256 q 191 259 186 258 q 182 256 179 252 q 178 250 157 223 q 136 195 103 163 q 80 141 66 131 q 52 122 44 121 q 37 120 32 123 q 31 123 30 124 q 29 125 29 126 q 26 135 30 152 q 34 169 44 187 q 59 209 78 224 q 98 238 112 242 q 120 243 126 243 q 131 242 135 241 q 138 239 140 238 q 142 236 142 236 q 145 232 149 231 q 154 229 159 232 q 164 235 165 240 q 166 245 163 250 q 163 250 159 254 q 156 258 149 262 q 143 266 132 268 q 122 270 107 267 q 84 261 62 243 q 39 225 23 200 q 10 179 5 157 q 0 135 5 119 q 8 110 13 105 q 18 101 22 99 q 57 80 121 144 q 132 155 143 167 l 117 105 q 115 100 117 95 q 119 91 124 89 q 126 88 128 88 z"},"L":{"x_min":0,"x_max":529,"ha":529,"o":"m 108 10 l 108 10 q 116 10 120 18 q 122 22 153 89 q 184 157 227 249 q 270 342 306 423 q 343 504 356 537 q 372 570 374 601 q 377 632 351 647 q 330 656 277 629 q 224 602 164 561 q 104 520 60 487 q 17 455 14 452 q 4 443 2 435 q 0 428 2 422 q 9 406 31 400 q 52 393 67 392 q 72 392 76 395 q 80 398 81 403 q 82 409 78 413 q 75 417 70 417 q 56 418 43 422 q 31 426 27 429 q 28 431 30 433 q 57 456 122 501 q 186 546 251 586 q 316 625 336 625 q 337 625 339 625 q 341 624 344 621 q 348 618 349 610 q 350 602 346 587 q 343 571 333 546 q 319 514 283 433 q 246 352 204 260 q 161 167 130 100 q 99 33 97 28 q 95 23 96 18 q 98 14 103 11 q 106 10 108 10 z m 491 -25 l 491 -25 q 499 -25 503 -16 q 504 -11 502 -6 q 500 -1 494 0 l 391 30 q 334 45 249 52 q 163 60 93 59 q 23 59 13 59 q 8 59 4 55 q 1 51 1 46 q 1 41 5 37 q 8 33 14 33 q 17 34 59 34 q 101 34 162 33 q 223 32 283 24 q 344 17 383 6 l 487 -24 q 489 -25 491 -25 z"},"3":{"x_min":0,"x_max":463,"ha":463,"o":"m 120 -6 l 120 -6 q 148 -6 185 -2 l 189 -2 q 252 6 302 40 q 351 74 368 106 q 389 147 393 205 q 397 263 371 294 q 337 322 290 326 q 392 364 419 458 q 438 543 346 579 q 313 592 285 590 q 257 588 203 564 q 170 549 148 527 q 126 505 115 487 q 103 470 102 468 q 100 463 101 458 q 103 453 107 451 q 112 448 117 450 q 122 451 125 456 q 125 457 135 473 q 146 488 165 508 q 185 527 213 541 q 249 557 269 562 q 290 567 304 564 q 319 562 338 555 q 410 528 395 465 q 370 381 276 348 l 211 327 q 207 325 204 321 q 202 317 203 312 q 204 307 208 304 q 211 302 216 302 q 240 305 283 302 q 327 298 353 276 q 372 254 368 205 q 365 156 346 118 q 330 90 286 60 q 241 30 187 23 l 183 23 q 130 17 100 20 q 70 23 45 49 q 36 58 31 72 q 26 87 31 104 l 38 130 q 40 135 37 140 q 35 145 29 146 q 24 147 20 145 q 16 142 14 137 l 6 111 q 0 85 7 64 q 15 43 27 31 q 64 -6 120 -6 z"},";":{"x_min":0,"x_max":102,"ha":102,"o":"m 61 228 l 61 228 q 68 228 72 237 l 76 248 q 77 253 75 258 q 72 262 67 264 q 62 265 58 263 q 53 260 52 255 l 48 245 q 47 239 49 235 q 51 230 57 229 q 59 228 61 228 z m 14 49 l 14 49 q 18 49 21 52 l 35 62 q 43 70 47 80 q 51 91 52 100 q 53 109 53 111 q 52 116 49 120 q 45 124 40 124 q 40 124 40 124 q 35 123 31 119 q 27 116 27 110 q 27 104 26 95 q 24 86 20 83 l 6 72 q 1 69 1 64 q 0 59 3 55 q 8 49 14 49 z"},"J":{"x_min":0,"x_max":561,"ha":561,"o":"m 180 -32 l 180 -32 q 220 -32 260 -2 q 281 15 299 43 q 316 71 327 95 q 338 119 339 122 q 339 122 339 123 q 347 140 383 222 q 419 305 459 397 q 499 488 516 531 q 531 564 534 595 q 537 626 510 642 q 490 651 452 635 q 415 619 374 593 q 333 566 305 545 q 276 524 274 522 q 264 513 262 505 q 260 497 262 491 q 269 476 288 469 q 307 463 319 462 q 325 461 329 465 q 333 468 333 473 q 334 479 331 482 q 328 486 322 487 q 311 488 301 492 q 291 495 287 498 q 288 500 292 503 q 318 526 362 555 q 406 584 446 604 q 485 624 499 619 q 501 618 504 615 q 507 612 509 604 q 510 596 506 581 q 503 565 493 541 q 476 500 438 413 q 401 327 365 245 q 330 163 318 137 q 316 131 315 131 q 308 110 288 74 q 268 38 245 18 q 181 -32 112 18 q 72 47 49 76 q 26 104 27 115 q 28 115 29 116 l 64 122 q 70 123 73 127 q 76 131 75 137 q 74 142 70 145 q 65 147 60 147 l 24 141 q 7 137 3 121 q 0 94 31 58 q 62 22 97 -2 q 140 -32 180 -32 z"},"V":{"x_min":0,"x_max":652,"ha":652,"o":"m 181 -44 l 181 -44 q 211 -44 258 14 q 258 14 258 14 q 263 20 308 76 q 353 132 412 209 q 472 287 521 359 q 535 378 546 395 q 550 385 553 380 q 556 376 558 375 q 562 372 567 372 q 572 373 576 377 q 579 381 578 386 q 578 391 575 394 q 574 395 571 400 q 568 406 563 420 q 597 473 610 503 q 623 532 625 552 q 627 568 622 589 q 617 609 601 619 q 593 623 580 620 q 567 618 550 600 q 525 574 520 542 q 515 511 526 460 q 531 439 535 424 q 521 401 500 373 q 450 301 390 222 q 330 144 286 89 q 241 33 238 30 q 223 12 212 1 q 202 -9 195 -13 q 188 -17 184 -18 q 180 -19 179 -19 q 177 -18 175 -15 q 173 -12 171 -8 q 170 -4 169 -2 q 169 -2 169 -2 q 169 10 184 53 q 199 97 218 146 q 218 146 218 146 q 224 161 251 230 q 278 300 309 379 q 339 458 356 500 q 372 534 375 564 q 377 595 351 610 q 330 619 277 592 q 224 564 164 524 q 104 483 60 450 q 17 417 14 415 q 4 406 2 398 q 0 391 2 385 q 9 369 31 363 q 53 356 67 355 q 73 354 77 358 q 81 361 81 366 q 82 372 78 375 q 75 379 70 380 q 56 381 43 385 q 31 389 27 392 q 28 394 30 396 q 58 419 125 466 q 191 513 256 552 q 320 590 339 588 q 342 587 345 584 q 348 581 349 573 q 350 565 347 550 q 343 534 333 509 q 320 478 298 421 q 275 364 252 303 q 229 243 212 200 q 195 157 194 155 q 183 127 171 93 q 158 59 150 31 q 142 2 145 -9 q 146 -17 153 -28 q 160 -40 174 -43 q 177 -44 181 -44 z m 588 596 l 588 596 q 589 596 590 596 q 595 593 598 581 q 602 569 600 555 q 598 540 588 516 q 578 493 554 453 q 552 459 551 466 q 540 515 545 540 q 551 565 569 583 q 583 596 588 596 z"},"\"":{"x_min":0,"x_max":132,"ha":132,"o":"m 13 494 l 13 494 q 17 494 21 497 l 34 507 q 43 514 47 525 q 51 536 52 545 q 53 554 52 556 q 52 561 49 564 q 45 568 40 568 q 34 568 31 564 q 27 561 27 555 q 27 549 25 540 q 23 531 19 527 l 5 517 q 1 514 1 509 q 0 503 3 499 q 7 494 13 494 z m 70 494 l 70 494 q 74 494 78 497 l 91 507 q 100 515 104 526 q 107 537 107 545 q 108 554 108 557 q 107 562 104 565 q 100 569 95 568 q 89 568 86 564 q 83 561 83 555 q 83 548 81 540 q 80 531 76 527 l 62 516 q 58 513 58 508 q 57 503 61 499 q 64 494 70 494 z"},"7":{"x_min":0,"x_max":380,"ha":380,"o":"m 13 11 l 13 11 q 20 11 24 17 l 85 111 q 108 146 151 217 q 194 288 244 373 q 265 409 281 437 q 298 465 310 486 q 321 507 330 522 q 338 537 343 547 q 348 557 351 563 q 354 569 355 572 q 356 576 356 577 q 356 579 356 580 q 355 584 353 587 q 351 590 343 592 q 335 594 317 594 q 299 595 267 595 q 235 596 186 595 q 125 593 79 592 q 33 590 30 590 q 24 590 21 586 q 17 583 18 577 q 18 572 21 568 q 25 565 30 565 q 124 568 208 570 q 292 571 326 569 q 308 533 257 446 q 207 358 152 267 q 97 175 64 125 l 2 31 q 0 26 1 21 q 2 17 6 13 q 10 11 13 11 z"},"S":{"x_min":0,"x_max":491,"ha":491,"o":"m 30 -75 l 30 -75 q 53 -75 87 -64 q 122 -53 152 -40 q 183 -27 197 -21 q 245 3 296 46 q 348 89 367 125 q 387 166 376 194 q 369 211 356 220 q 343 229 331 232 q 309 240 261 250 q 205 260 159 274 q 119 287 105 302 q 92 317 94 344 q 93 361 119 397 q 146 434 230 490 q 400 591 438 585 q 434 576 424 561 q 414 546 401 530 q 397 526 398 521 q 398 516 402 512 q 407 509 412 510 q 417 510 420 514 q 438 536 453 559 q 467 582 463 597 q 460 606 450 609 q 396 621 216 512 q 73 418 69 346 q 66 305 87 284 q 108 263 150 250 q 199 235 256 225 q 301 216 322 209 q 331 206 340 200 q 348 194 352 185 q 359 167 344 135 q 327 104 278 64 q 229 24 186 2 q 140 -20 93 -35 q 45 -51 27 -50 q 27 -43 34 -29 q 41 -15 59 11 q 62 16 62 21 q 61 26 57 29 q 52 32 47 31 q 42 31 39 26 q 23 6 12 -16 q 0 -39 3 -58 q 5 -67 14 -72 q 20 -75 30 -75 z"},"}":{"x_min":0,"x_max":291,"ha":291,"o":"m 39 -19 l 39 -19 q 53 -19 66 -9 q 76 -3 92 20 q 107 43 121 71 q 135 104 147 149 q 159 193 171 223 q 177 234 185 240 q 192 247 199 250 q 207 253 211 254 q 216 255 217 255 q 226 256 229 265 q 230 274 223 279 l 207 290 q 193 297 197 326 q 198 333 207 360 q 216 387 227 416 q 238 448 248 477 q 257 505 261 519 q 266 540 261 558 q 256 576 229 585 q 218 589 208 587 q 197 584 190 580 q 182 575 177 571 q 173 566 172 566 q 169 562 169 557 q 170 552 174 548 q 178 544 183 545 q 188 545 191 549 q 191 549 194 552 q 197 554 201 557 q 205 560 210 562 q 216 563 222 562 q 232 559 237 552 q 241 545 236 524 q 233 512 223 483 q 213 455 203 424 q 172 340 171 329 q 170 319 172 303 q 173 286 187 272 q 165 264 149 233 q 135 201 123 156 q 110 112 98 83 q 83 53 71 34 q 58 16 53 12 q 46 8 42 7 q 39 6 37 6 q 37 6 36 7 q 35 8 33 11 q 31 13 29 18 l 25 27 q 23 32 18 33 q 13 35 8 33 q 3 31 2 26 q 0 21 2 17 l 6 7 q 15 -13 30 -18 q 34 -19 39 -19 z"},"Z":{"x_min":0,"x_max":489,"ha":489,"o":"m 40 -46 l 40 -46 q 61 -46 103 -38 q 153 -27 228 -4 q 303 18 363 41 q 423 64 432 76 q 433 79 433 82 q 433 85 432 88 q 427 96 417 105 q 407 113 401 118 q 396 121 391 120 q 386 120 383 115 q 380 111 381 106 q 381 101 386 98 q 395 91 402 84 q 365 67 274 36 q 182 5 98 -13 q 61 -20 45 -21 q 30 -21 27 -20 q 28 -17 30 -13 q 32 -9 33 -6 q 38 2 41 11 q 45 23 83 74 q 120 125 171 191 q 222 257 267 316 q 347 419 382 467 q 402 495 418 515 q 444 548 454 566 q 464 583 458 594 q 456 600 450 602 q 445 604 440 605 q 436 605 433 605 q 413 605 333 578 q 252 550 175 521 q 97 492 74 482 q 51 473 52 457 q 55 442 73 433 q 92 423 114 418 q 119 417 124 420 q 128 422 129 427 q 130 433 128 437 q 125 441 120 443 q 108 446 97 450 q 87 454 81 458 q 82 458 84 459 q 117 472 193 501 q 269 529 343 555 q 417 580 433 580 q 434 580 434 580 q 429 572 420 559 q 410 546 398 530 q 382 510 362 482 q 327 435 247 332 q 18 35 16 18 q 14 12 10 5 q 5 -4 3 -15 q 0 -25 6 -35 q 11 -46 40 -46 z"},"x":{"x_min":0,"x_max":248,"ha":248,"o":"m 181 98 l 181 98 q 185 98 188 100 q 192 103 193 108 q 194 113 192 118 l 98 258 q 95 263 90 264 q 85 265 81 262 q 76 258 75 253 q 74 249 77 244 l 170 104 q 175 98 181 98 z m 13 43 l 13 43 q 19 43 23 47 l 220 286 q 224 291 223 296 q 223 301 219 304 q 214 308 209 307 q 204 307 201 302 l 3 63 q 0 60 0 54 q 1 49 5 46 q 9 43 13 43 z"},")":{"x_min":0,"x_max":239,"ha":239,"o":"m 13 -12 l 13 -12 q 19 -12 23 -6 q 25 -3 53 44 q 81 92 117 164 q 152 236 179 312 q 203 388 209 460 q 215 533 213 583 q 210 632 209 637 q 208 642 205 645 q 201 648 196 648 q 190 647 188 644 q 185 640 185 634 q 186 632 188 584 q 190 536 184 464 q 178 393 155 320 q 129 246 94 175 q 59 104 32 57 q 4 9 2 7 q 0 2 1 -2 q 2 -7 6 -10 q 10 -12 13 -12 z"},"&":{"x_min":0,"x_max":405,"ha":405,"o":"m 251 -90 l 251 -90 q 251 -90 252 -90 q 257 -90 261 -86 q 264 -83 264 -77 l 260 7 q 255 97 231 217 q 224 257 215 305 q 198 416 206 467 q 214 518 225 529 q 245 558 269 562 q 291 566 315 549 q 328 540 333 524 q 337 509 336 493 q 336 477 334 466 q 332 456 331 455 q 330 449 333 445 q 335 440 340 439 q 345 438 350 440 q 354 443 355 448 q 356 450 359 464 q 361 478 362 497 q 362 517 355 537 q 348 557 330 570 q 296 593 264 587 q 230 581 205 543 q 190 526 181 470 q 172 414 190 301 q 199 253 206 213 q 206 213 206 212 q 230 93 235 5 l 239 -78 q 239 -83 242 -87 q 246 -90 251 -90 z m 115 -28 l 115 -28 q 153 -28 193 -10 q 233 8 256 22 q 287 42 314 75 q 341 109 359 137 q 376 166 378 169 q 380 174 379 179 q 378 184 373 187 q 368 189 363 188 q 358 187 356 182 q 355 181 346 164 q 336 148 320 125 q 303 101 283 79 q 264 57 243 43 q 142 -15 90 1 q 28 28 50 118 q 71 208 151 278 q 168 293 179 303 q 190 312 196 318 q 202 324 204 326 q 207 328 207 328 q 210 332 210 337 q 210 342 207 346 q 203 350 198 350 q 192 350 188 346 q 188 346 186 344 q 184 341 178 336 q 172 331 162 321 q 151 312 135 297 q 49 222 25 125 q 0 14 81 -22 q 97 -28 115 -28 z"},"_":{"x_min":0,"x_max":391,"ha":391,"o":"m 346 61 l 346 61 q 354 61 361 65 q 367 68 367 74 q 367 79 361 83 q 354 86 346 86 l 21 86 q 12 86 6 83 q 0 79 0 74 q 0 68 6 65 q 12 61 21 61 z"},"v":{"x_min":0,"x_max":213,"ha":213,"o":"m 18 86 l 18 86 q 21 86 26 89 q 39 97 63 122 q 88 148 114 180 q 140 212 156 239 l 187 290 q 189 295 188 300 q 187 305 182 308 q 177 310 172 309 q 167 308 165 303 l 134 252 q 114 219 81 181 q 48 142 25 121 q 27 143 33 179 q 39 216 47 254 q 48 259 45 264 q 42 268 38 269 q 32 270 28 267 q 23 265 22 259 q 12 213 7 182 q 2 152 1 134 q 0 116 1 107 q 2 98 4 94 q 6 91 8 89 q 13 86 18 86 z m 26 107 l 26 107 l 26 107 z"},"O":{"x_min":0,"x_max":627,"ha":627,"o":"m 270 13 l 270 13 q 288 13 308 17 q 349 23 399 50 q 449 77 491 122 q 527 163 556 221 q 584 279 594 333 q 603 385 594 443 q 585 501 554 539 q 489 614 407 622 q 325 631 240 602 q 152 572 53 492 l 50 490 q 30 474 19 464 q 8 454 4 448 q 0 442 0 438 q 0 431 4 426 l 5 425 q 9 421 20 414 q 30 407 56 399 q 62 398 66 400 q 70 403 72 408 q 73 413 71 417 q 68 422 63 423 q 35 432 29 438 q 35 445 66 470 l 68 472 q 165 550 248 578 q 328 606 404 597 q 477 590 535 522 q 562 490 569 437 q 577 384 569 337 q 560 288 533 232 q 506 177 472 139 q 434 97 387 73 q 341 48 304 42 q 229 28 198 70 q 166 112 173 187 q 179 228 202 282 q 226 337 253 384 q 271 414 294 443 q 316 473 335 494 q 353 515 358 520 q 359 521 359 522 q 364 528 361 535 q 357 542 350 542 q 348 542 346 542 q 344 542 341 539 q 338 537 333 531 q 329 526 321 517 q 312 507 300 492 q 266 451 231 396 q 215 370 186 308 q 157 246 148 189 q 140 105 178 55 q 209 13 270 13 z m 22 444 l 22 444 q 22 444 22 444 q 22 444 22 444 z"},"(":{"x_min":0,"x_max":242,"ha":242,"o":"m 12 1 l 12 1 q 17 1 21 5 q 24 8 24 13 q 24 15 26 81 q 28 147 37 233 q 45 320 65 390 q 87 457 121 510 q 155 563 183 594 q 211 625 213 627 q 217 630 217 635 q 217 640 213 644 q 210 648 205 648 q 200 648 196 645 q 192 642 163 610 q 134 577 99 522 q 64 467 42 397 q 21 326 12 239 q 3 152 2 85 q 0 18 0 13 q 0 8 3 5 q 7 1 12 1 z"},"C":{"x_min":0,"x_max":466,"ha":466,"o":"m 133 26 l 133 26 q 143 26 155 27 q 220 35 258 62 q 297 89 341 137 l 414 212 q 417 216 417 221 q 417 226 413 230 q 409 234 404 234 q 399 233 395 230 l 323 155 q 280 109 245 84 q 210 59 152 52 q 97 47 68 71 q 40 95 33 129 q 25 167 35 231 q 45 296 68 360 q 118 499 218 568 q 339 643 408 612 q 411 611 412 609 q 413 608 414 606 q 416 594 406 575 q 396 556 384 541 q 380 537 381 532 q 382 527 386 523 q 390 520 395 521 q 400 521 404 525 q 408 530 417 545 q 427 559 434 578 q 441 596 438 612 q 434 628 417 636 q 323 668 203 589 q 97 515 44 369 q 20 301 10 233 q 0 165 8 124 q 16 86 46 57 q 76 27 133 26 z"},"W":{"x_min":0,"x_max":758,"ha":758,"o":"m 445 -193 l 445 -193 q 459 -193 469 -183 q 479 -173 487 -161 q 494 -148 497 -141 q 532 -67 588 88 q 645 244 685 372 l 732 525 q 734 531 732 535 q 729 540 724 542 q 719 543 715 541 q 710 538 708 533 l 661 380 q 621 252 564 97 q 508 -57 474 -130 q 470 -139 467 -145 q 463 -150 460 -155 q 458 -159 455 -161 q 453 -164 451 -165 q 449 -167 448 -167 q 446 -168 446 -168 q 445 -168 445 -168 q 440 -167 435 -153 q 429 -139 427 -117 q 425 -96 427 -37 q 428 22 430 91 q 432 160 434 210 q 436 261 436 265 q 437 269 434 272 q 432 276 427 277 q 423 278 419 277 q 416 275 413 272 q 411 269 383 225 q 354 182 315 124 q 275 66 238 21 q 223 3 212 -7 q 202 -17 195 -21 q 188 -26 184 -27 q 180 -27 179 -27 q 177 -26 175 -23 q 172 -21 171 -17 q 170 -13 169 -11 q 169 -11 169 -10 q 169 1 184 45 q 198 88 218 137 q 218 137 218 138 q 224 153 251 223 q 278 292 309 371 q 339 450 356 491 q 371 525 374 556 q 377 586 351 602 q 330 610 277 583 q 224 556 164 515 q 104 474 60 442 q 17 409 14 406 q 4 397 2 390 q 0 382 2 376 q 9 360 31 354 q 52 347 67 346 q 72 346 76 349 q 80 352 81 357 q 82 363 78 367 q 75 371 70 372 q 56 373 43 376 q 31 380 27 384 q 28 385 30 387 q 58 411 125 458 q 191 504 256 543 q 320 581 339 580 q 341 579 344 575 q 348 572 349 564 q 350 556 346 541 q 343 526 333 500 q 320 469 298 412 q 275 355 252 295 q 228 234 212 191 q 195 149 194 146 q 183 119 171 85 q 158 51 150 22 q 142 -6 145 -17 q 146 -25 153 -36 q 160 -48 174 -52 q 206 -59 258 5 q 297 53 339 115 q 381 176 409 219 q 407 170 405 99 q 402 28 401 -34 q 400 -96 401 -119 q 403 -143 412 -166 q 422 -188 440 -193 q 443 -193 445 -193 z"},"A":{"x_min":0,"x_max":568,"ha":568,"o":"m 338 -44 l 338 -44 q 346 -44 350 -36 q 354 -25 380 50 q 407 126 442 231 q 477 336 505 434 q 533 533 541 589 q 544 615 543 625 q 543 638 531 645 q 505 655 435 629 q 365 604 284 563 q 203 523 143 491 q 84 458 80 456 q 70 449 68 442 q 66 436 67 431 q 71 416 92 406 q 112 397 130 393 q 135 392 139 394 q 144 397 145 402 q 146 407 144 412 q 141 416 136 417 q 122 421 110 426 q 99 430 94 435 q 94 435 94 435 q 94 435 94 435 q 108 444 168 476 q 229 509 306 545 q 368 575 409 592 q 449 608 472 615 q 496 622 506 623 q 516 624 519 623 q 519 617 516 592 q 508 537 479 438 q 450 338 415 232 q 380 126 354 52 q 328 -22 326 -27 q 325 -32 327 -37 q 329 -42 334 -43 q 336 -44 338 -44 z m 13 -35 l 13 -35 q 19 -35 23 -30 l 533 626 q 536 631 535 636 q 535 641 530 644 q 526 647 521 647 q 516 646 513 642 l 3 -14 q 0 -19 1 -24 q 1 -29 5 -32 q 9 -35 13 -35 z m 462 173 l 462 173 q 467 173 471 177 q 475 180 475 186 q 475 190 471 194 q 467 198 462 198 l 97 198 q 92 198 88 194 q 84 190 84 186 q 84 180 88 177 q 92 173 97 173 z"},"f":{"x_min":0,"x_max":295,"ha":295,"o":"m 13 -63 l 13 -63 q 21 -63 25 -56 q 25 -56 25 -55 q 28 -48 46 -2 q 64 44 90 109 q 115 174 138 238 q 161 300 176 329 q 190 358 201 368 q 212 377 224 382 q 225 382 225 382 q 226 382 226 382 q 227 382 227 382 q 232 378 237 367 q 243 356 245 345 q 247 340 251 337 q 255 335 260 336 q 266 337 268 342 q 271 346 270 351 q 269 355 265 366 q 262 376 255 388 q 248 399 237 405 q 226 411 213 405 q 198 398 184 386 q 170 374 154 342 q 138 311 115 247 q 90 181 64 115 q 39 48 21 2 q 3 -43 1 -46 q 0 -51 2 -56 q 4 -61 9 -63 q 11 -63 13 -63 z m 190 205 l 190 205 q 195 205 199 208 q 203 211 203 217 q 203 222 200 226 q 196 229 191 230 l 109 235 q 104 235 100 232 q 97 229 96 223 q 96 218 99 214 q 103 210 108 210 l 189 205 q 190 205 190 205 z"},"Q":{"x_min":0,"x_max":627,"ha":627,"o":"m 271 12 l 271 12 q 288 12 308 15 q 349 22 399 49 q 450 75 491 121 q 528 162 556 220 q 584 278 594 332 q 603 384 594 442 q 585 500 555 538 q 490 613 407 621 q 326 630 240 601 q 153 571 53 491 l 51 489 q 30 472 19 462 q 8 453 4 447 q 0 441 0 436 q 0 430 5 425 l 5 424 q 9 419 20 413 q 31 406 57 398 q 62 396 66 399 q 71 401 72 407 q 74 412 71 417 q 68 421 63 422 q 36 431 29 437 q 36 444 66 469 l 69 471 q 190 562 248 577 q 329 604 405 596 q 477 589 536 521 q 562 488 570 436 q 577 383 569 336 q 560 286 533 231 q 506 176 472 137 q 434 96 388 71 q 341 46 304 40 q 229 27 198 69 q 166 111 174 185 q 179 227 203 281 q 226 335 254 383 q 271 412 294 442 q 316 471 335 492 q 353 514 358 519 q 359 520 360 521 q 364 527 361 534 q 357 541 350 541 q 348 541 346 541 q 345 540 342 538 q 339 536 334 530 q 329 525 321 515 q 312 506 300 491 q 266 450 232 396 q 216 369 186 307 q 157 245 148 188 q 140 104 178 54 q 209 12 271 12 z m 22 443 l 22 443 q 22 443 23 443 z m 514 11 l 514 11 q 519 11 522 14 q 526 18 527 22 q 527 27 524 32 l 481 81 q 466 100 447 127 q 429 155 412 182 q 395 210 384 229 q 373 248 372 249 q 369 253 364 255 q 359 256 354 254 q 350 251 349 246 q 347 241 350 236 q 352 232 371 201 q 390 169 415 130 q 440 91 462 64 l 504 15 q 509 11 514 11 z"},"w":{"x_min":0,"x_max":274,"ha":274,"o":"m 128 29 l 128 29 q 134 29 139 32 q 144 36 146 40 q 149 44 151 47 q 168 78 190 125 q 212 173 229 212 q 246 251 248 256 q 250 261 248 266 q 247 271 242 273 q 236 275 232 273 q 227 271 225 266 q 224 265 214 241 q 204 218 189 184 q 173 149 157 116 q 142 82 129 60 q 125 78 122 108 q 120 139 119 160 q 118 185 116 197 q 115 206 111 209 q 106 213 104 213 q 92 216 80 202 q 68 188 47 156 q 38 141 27 126 q 31 151 40 190 q 49 229 59 269 q 61 274 58 279 q 56 283 50 285 q 45 286 41 283 q 37 281 35 276 q 23 232 16 201 q 9 170 5 150 q 1 129 1 117 q 0 105 1 99 q 1 92 3 90 q 5 87 7 86 q 15 81 24 86 q 39 96 68 142 q 74 150 80 160 q 87 169 93 178 q 93 169 94 159 q 97 91 103 62 q 109 32 124 29 q 126 29 128 29 z m 25 103 l 25 103 l 25 103 z"},"-":{"x_min":0,"x_max":225,"ha":225,"o":"m 170 164 l 170 164 q 174 164 177 167 q 180 171 180 176 q 180 181 177 185 q 174 189 170 189 l 10 189 q 6 189 3 185 q 0 181 0 176 q 0 171 3 167 q 6 164 10 164 z"},"E":{"x_min":0,"x_max":647,"ha":647,"o":"m 240 2 l 240 2 q 268 2 305 16 q 362 37 406 66 q 451 96 477 119 q 503 142 505 146 q 509 149 509 154 q 509 159 505 163 q 501 167 496 167 q 491 167 487 163 q 486 161 461 139 q 436 117 393 88 q 351 60 297 40 q 238 19 213 34 q 200 42 195 56 q 190 70 188 84 l 188 86 q 187 104 198 140 q 209 176 222 204 q 222 204 223 206 q 229 222 255 285 q 281 347 311 418 q 340 488 356 529 q 372 562 374 593 q 377 624 351 640 q 330 648 277 621 q 224 593 164 552 q 104 512 60 479 q 17 446 14 444 q 4 435 2 427 q 0 419 2 414 q 9 398 31 391 q 52 385 67 384 q 72 383 76 386 q 81 390 81 395 q 82 400 78 404 q 75 408 70 409 q 56 411 43 414 q 31 417 27 421 q 28 422 30 425 q 58 448 125 495 q 191 542 256 580 q 320 619 339 617 q 341 616 344 613 q 348 609 349 602 q 350 594 347 579 q 343 563 333 538 q 320 507 299 455 q 277 402 254 347 q 231 292 215 254 q 199 216 198 214 q 195 208 186 183 q 176 159 169 130 q 161 101 163 82 l 164 80 q 166 64 173 44 q 180 25 200 12 q 216 2 240 2 z m 179 265 l 179 265 q 180 265 180 265 l 456 304 q 461 304 464 308 q 467 312 467 318 q 466 323 462 326 q 458 329 453 329 l 177 291 q 171 290 168 285 q 166 281 166 276 q 167 271 170 268 q 174 265 179 265 z m 360 572 l 360 572 q 361 572 362 572 l 611 603 q 616 604 619 608 q 623 612 622 617 q 621 623 617 626 q 613 629 608 628 l 358 597 q 353 596 350 592 q 347 588 348 583 q 348 578 352 575 q 355 572 360 572 z m 360 572 l 360 572 q 361 572 362 572 l 601 602 q 606 603 609 607 q 612 611 612 616 q 611 621 607 624 q 603 627 598 627 l 358 597 q 353 596 350 592 q 347 588 348 583 q 348 578 352 575 q 355 572 360 572 z m 369 572 l 369 572 q 369 572 370 572 l 609 602 q 615 603 618 607 q 621 611 620 616 q 620 621 615 624 q 611 627 606 627 l 367 597 q 362 596 359 592 q 355 588 356 583 q 357 578 360 575 q 364 572 369 572 z"},"s":{"x_min":0,"x_max":228,"ha":228,"o":"m 78 -26 l 78 -26 q 86 -26 97 -25 q 152 -17 157 41 q 157 65 145 93 q 132 121 116 144 q 101 168 97 187 q 94 205 97 212 q 110 243 139 242 q 140 242 141 242 q 152 242 162 238 q 171 234 176 231 q 182 228 182 227 q 182 227 182 227 l 182 227 q 187 224 191 224 q 196 225 200 229 q 204 233 203 238 q 203 243 198 247 q 198 247 190 252 q 182 257 169 262 q 156 267 139 267 q 93 267 74 222 q 68 208 72 183 q 77 158 95 130 q 132 73 132 42 q 130 4 94 0 q 66 -2 50 4 q 34 10 21 21 q 16 24 11 23 q 6 22 3 18 q 0 13 1 8 q 1 3 6 0 q 19 -10 35 -18 q 52 -26 78 -26 z"},">":{"x_min":0,"x_max":383,"ha":383,"o":"m 14 41 l 14 41 q 16 41 18 42 l 349 143 q 357 146 358 154 q 358 163 351 167 l 95 282 q 90 284 85 282 q 81 280 78 275 q 76 271 78 266 q 80 261 84 259 l 310 157 l 10 66 q 5 64 2 60 q 0 55 1 50 q 5 41 14 41 z"},"l":{"x_min":0,"x_max":226,"ha":226,"o":"m 13 0 l 13 0 q 21 0 25 8 l 200 456 q 202 461 199 466 q 197 470 192 472 q 188 474 183 472 q 178 470 176 465 l 1 18 q 0 12 2 8 q 4 3 9 1 q 11 0 13 0 z"},"8":{"x_min":0,"x_max":504,"ha":504,"o":"m 83 580 l 83 580 l 83 580 z m 165 -3 l 165 -3 q 247 -2 297 22 q 340 43 370 80 q 399 117 387 163 q 378 187 351 221 q 352 222 353 223 l 407 296 q 407 297 407 297 l 410 301 q 432 336 447 369 q 461 402 471 457 q 480 510 461 550 q 443 590 404 602 q 339 622 249 562 q 206 533 183 486 q 159 438 168 401 q 175 380 192 356 q 182 348 154 321 q 126 294 95 260 q 63 225 43 193 q 0 120 15 66 q 27 28 68 12 q 113 -3 165 -3 z m 206 336 l 206 336 q 220 319 230 307 q 240 296 242 294 q 242 294 243 293 q 243 293 256 282 q 268 271 286 252 q 304 234 322 214 q 354 176 362 153 q 372 119 347 90 q 322 62 287 44 q 250 26 188 23 q 127 19 79 36 q 48 48 40 75 q 28 118 65 181 q 83 210 112 242 q 141 274 168 300 q 195 326 206 336 z m 260 313 l 260 313 q 247 327 224 356 q 202 386 193 410 q 186 437 205 476 q 224 516 262 542 q 341 595 396 578 q 425 569 439 536 q 453 503 446 459 q 437 409 423 378 q 410 347 388 313 l 334 240 q 309 268 287 289 q 265 309 260 313 z"},"\\":{"x_min":0,"x_max":281,"ha":281,"o":"m 242 7 q 245 7 248 8 q 253 11 255 16 q 257 21 255 25 l 44 526 l 22 573 q 15 578 7 572 q 0 566 3 557 l 231 15 q 235 7 242 7 z"},"e":{"x_min":0,"x_max":214,"ha":214,"o":"m 65 92 l 65 92 q 89 92 113 104 q 144 119 164 133 q 184 147 186 149 q 189 153 190 158 q 190 163 187 167 q 183 171 178 171 q 173 172 169 168 q 168 167 150 154 q 131 141 103 127 q 74 115 59 117 q 44 120 36 132 q 23 153 33 180 q 44 176 64 172 q 84 168 101 174 q 140 192 144 224 q 146 245 135 257 q 130 262 122 265 q 114 269 101 268 q 83 267 62 255 q 41 244 25 222 q 9 197 5 168 q 0 140 16 117 q 39 92 65 92 z m 43 203 l 43 203 q 45 206 46 208 q 58 224 73 233 q 89 242 103 243 q 106 243 110 242 q 114 242 116 240 q 120 236 119 227 q 117 216 108 208 q 99 201 90 198 q 83 195 69 197 q 56 199 43 203 z"},"b":{"x_min":0,"x_max":216,"ha":216,"o":"m 86 83 l 86 83 q 89 83 91 84 q 121 88 139 108 q 158 128 171 155 q 188 189 190 210 q 191 231 187 247 q 182 262 167 269 q 142 279 106 260 q 96 254 82 237 l 176 456 q 178 461 176 466 q 174 470 169 473 q 165 475 160 473 q 155 471 153 466 l 2 115 q 0 110 2 106 q 3 102 8 99 q 13 97 17 98 q 22 100 25 104 q 46 142 74 184 q 103 227 119 238 q 147 251 157 246 q 161 244 162 240 q 166 228 165 211 q 163 195 148 167 q 126 116 88 109 q 83 108 77 111 q 72 114 68 117 q 63 121 62 124 q 62 129 57 132 q 53 134 48 134 q 42 132 40 128 q 37 124 38 119 q 41 106 55 95 q 70 83 86 83 z"},"%":{"x_min":0,"x_max":428,"ha":428,"o":"m 13 4 l 13 4 q 20 4 24 10 l 401 561 q 404 566 403 571 q 402 576 397 579 q 393 582 388 581 q 383 580 380 576 l 3 24 q 0 20 1 15 q 2 10 6 7 q 10 4 13 4 z m 106 401 l 106 401 q 135 401 155 421 q 175 441 175 470 q 175 498 155 518 q 135 539 106 539 q 78 539 57 518 q 37 498 37 470 q 37 441 57 421 q 78 401 106 401 z m 106 513 l 106 513 q 124 513 137 500 q 150 488 150 470 q 150 452 137 439 q 124 426 106 426 q 88 426 75 439 q 62 452 62 470 q 62 488 75 500 q 88 513 106 513 z m 287 25 l 287 25 q 318 25 340 47 q 362 68 362 99 q 362 130 340 152 q 318 174 287 174 q 256 174 235 152 q 213 130 213 99 q 213 68 235 47 q 256 25 287 25 z m 287 148 l 287 148 q 308 148 322 134 q 336 120 336 99 q 336 79 322 64 q 308 50 287 50 q 267 50 253 64 q 238 79 238 99 q 238 120 253 134 q 267 148 287 148 z"},"m":{"x_min":0,"x_max":308,"ha":308,"o":"m 234 101 l 234 101 q 242 101 247 109 q 257 140 263 162 q 270 184 274 198 q 278 213 280 223 q 282 232 283 237 q 283 242 283 245 q 282 247 282 248 q 278 258 273 262 q 268 267 263 269 q 240 273 206 241 q 196 233 179 216 q 162 198 144 179 q 152 203 158 221 q 164 239 165 245 q 166 256 156 262 q 152 264 145 264 q 138 264 125 258 q 112 252 91 237 q 72 223 52 199 l 76 268 q 77 273 75 277 q 73 282 68 284 q 62 285 58 283 q 53 281 52 276 l 1 127 q 0 123 2 118 q 4 114 8 112 q 13 110 17 111 q 21 112 24 116 q 25 117 33 129 q 41 141 53 158 q 65 175 79 191 q 93 208 106 217 q 127 232 136 235 q 131 219 121 190 q 110 162 99 130 q 97 126 99 122 q 100 118 104 115 q 108 113 112 113 q 117 114 120 117 q 121 118 133 131 q 146 145 163 163 q 181 181 197 198 q 213 214 222 222 q 231 230 238 235 q 244 239 248 241 q 251 243 253 244 q 255 244 256 244 q 256 244 256 244 q 256 244 256 243 q 257 243 258 241 q 257 230 246 194 q 236 157 223 117 q 221 112 223 107 q 226 103 230 101 q 232 101 234 101 z"},"#":{"x_min":0,"x_max":479,"ha":479,"o":"m 197 11 l 197 11 q 205 11 209 19 l 398 562 q 400 568 398 572 q 396 577 390 579 q 385 581 381 578 q 376 576 374 571 l 185 27 q 183 22 186 18 q 188 13 193 11 q 195 11 197 11 z m 54 32 l 54 32 q 62 32 66 41 l 255 584 q 257 589 255 594 q 252 598 248 600 q 243 602 238 599 q 233 597 231 592 l 42 49 q 41 43 43 39 q 45 35 50 33 q 52 32 54 32 z m 442 449 l 442 449 q 448 449 451 452 q 455 456 455 461 q 455 466 452 470 q 448 474 443 474 l 105 479 q 100 479 96 476 q 93 473 92 467 q 93 462 96 458 q 100 455 105 454 l 442 449 q 442 449 442 449 z m 381 215 l 381 215 q 386 215 389 219 q 393 222 394 228 q 393 233 390 237 q 386 240 381 240 l 13 247 q 7 246 4 243 q 0 239 0 234 q 0 229 3 225 q 7 221 12 221 l 380 215 q 380 215 381 215 z"},",":{"x_min":0,"x_max":77,"ha":77,"o":"m 14 54 l 14 54 q 18 54 21 57 l 35 67 q 43 75 47 85 q 51 96 52 105 q 53 114 53 116 q 52 121 49 125 q 45 128 40 128 q 40 128 40 128 q 35 128 31 124 q 27 121 27 115 q 27 109 26 100 q 24 91 20 87 l 6 77 q 1 74 1 69 q 0 64 3 60 q 8 54 14 54 z"},"n":{"x_min":0,"x_max":205,"ha":205,"o":"m 14 85 l 14 85 q 20 85 24 91 q 48 131 77 175 q 107 218 124 231 q 138 240 145 242 q 152 244 154 243 q 155 242 155 241 q 155 240 156 239 q 156 238 156 238 q 155 228 141 188 q 127 147 109 103 q 107 98 109 94 q 111 89 116 86 q 121 84 126 87 q 130 89 133 94 q 139 109 151 139 q 162 169 171 198 q 181 227 181 239 q 180 257 166 265 q 159 270 145 268 q 131 267 110 252 q 91 239 66 202 l 86 257 q 88 262 86 267 q 84 271 79 273 q 74 275 69 273 q 64 271 62 266 l 2 102 q 0 97 2 93 q 4 88 8 86 q 11 85 14 85 z"},"h":{"x_min":0,"x_max":209,"ha":209,"o":"m 99 29 l 99 29 q 106 29 111 37 l 138 101 q 141 109 153 140 q 166 172 175 206 q 185 240 182 257 q 177 271 161 276 q 134 283 97 251 q 84 239 68 216 l 182 514 q 184 519 182 524 q 180 528 175 531 q 170 532 165 530 q 161 528 159 523 l 2 115 q 0 110 2 106 q 3 102 8 100 q 13 97 17 99 q 21 100 24 104 q 34 120 51 146 q 67 172 85 197 q 102 221 114 232 q 130 246 140 250 q 150 253 155 252 q 156 251 156 251 q 157 250 157 250 q 161 229 114 110 l 87 47 q 85 42 87 37 q 89 33 94 30 q 97 29 99 29 z"},"z":{"x_min":0,"x_max":211,"ha":211,"o":"m 15 92 l 15 92 q 15 92 15 92 l 175 99 q 180 99 184 103 q 187 106 187 112 q 187 117 183 121 q 179 124 174 124 l 48 119 l 178 241 q 184 247 181 255 q 178 262 170 263 l 55 270 q 49 270 46 266 q 42 263 42 258 q 41 252 44 249 q 48 245 53 245 l 140 240 l 6 114 q 0 107 3 100 q 7 92 15 92 z"},"B":{"x_min":0,"x_max":569,"ha":569,"o":"m 195 -114 l 195 -114 q 217 -114 244 -106 q 364 -69 452 85 q 482 141 485 207 q 489 273 464 314 q 436 351 399 363 l 425 374 q 473 396 501 442 q 530 488 537 537 q 544 597 516 635 q 500 654 478 655 q 420 651 346 514 q 341 506 335 495 q 345 521 351 535 q 364 570 365 601 q 366 631 339 646 q 318 653 267 623 q 215 594 157 550 q 99 506 57 471 q 15 437 12 434 q 3 424 1 417 q 0 409 2 403 q 10 388 32 382 q 54 377 68 376 q 74 376 78 380 q 82 383 82 388 q 82 394 79 397 q 75 401 70 402 q 56 402 43 405 q 31 408 26 412 q 27 413 30 416 q 56 440 121 490 q 185 541 247 582 q 309 624 329 623 q 331 622 334 619 q 337 616 339 608 q 341 600 338 585 q 335 569 327 544 q 314 511 283 428 q 252 345 216 251 q 179 157 153 88 q 126 20 125 15 q 123 10 125 5 q 127 0 132 -1 q 137 -3 141 -1 q 146 0 148 5 q 150 10 176 73 q 202 136 239 223 q 276 311 312 388 q 347 466 368 500 q 400 554 428 592 q 455 630 476 630 q 476 630 477 630 q 487 630 496 619 q 518 590 512 541 q 506 499 481 458 q 457 416 415 397 l 357 374 q 349 370 350 360 q 351 352 359 349 q 360 349 369 347 q 378 344 392 339 q 406 333 419 323 q 433 314 443 300 q 462 269 460 210 q 458 151 430 97 q 347 -47 237 -82 q 206 -90 185 -88 q 164 -85 153 -80 q 142 -74 141 -73 q 137 -69 132 -70 q 126 -70 123 -74 q 120 -79 120 -83 q 120 -88 124 -92 q 125 -93 133 -98 q 142 -104 157 -109 q 172 -114 195 -114 z"},"K":{"x_min":0,"x_max":701,"ha":701,"o":"m 108 -4 l 108 -4 q 116 -4 120 3 q 122 8 153 75 q 184 143 227 235 q 269 328 306 409 q 343 490 356 522 q 371 557 374 587 q 377 618 351 634 q 330 642 277 615 q 224 587 164 547 q 104 506 60 473 q 17 440 14 438 q 4 429 2 421 q 0 414 2 408 q 9 392 31 385 q 52 379 67 378 q 72 377 76 381 q 80 384 81 389 q 82 395 78 398 q 75 402 70 403 q 56 405 43 408 q 31 412 27 415 q 27 417 30 419 q 58 442 125 489 q 191 536 255 574 q 319 613 339 611 q 341 610 344 607 q 348 604 349 596 q 350 588 346 573 q 343 557 333 532 q 319 500 283 419 q 246 338 204 245 q 161 153 130 86 q 99 19 97 14 q 95 9 96 4 q 98 0 103 -3 q 106 -4 108 -4 z m 370 -61 l 370 -61 q 375 -61 379 -57 q 383 -53 383 -48 q 382 -43 379 -39 l 167 163 l 672 626 q 676 629 676 635 q 676 640 673 644 q 669 647 664 648 q 659 648 655 645 l 140 172 q 136 168 136 163 q 136 157 140 154 l 361 -57 q 365 -61 370 -61 z"},"R":{"x_min":0,"x_max":636,"ha":636,"o":"m 599 -90 l 599 -90 q 600 -90 601 -90 q 605 -90 609 -86 q 612 -83 612 -77 q 611 -72 608 -69 q 604 -65 599 -65 q 599 -65 591 -64 q 583 -63 563 -58 q 544 -53 509 -42 q 465 -26 433 6 q 400 38 375 71 q 364 84 354 96 q 338 115 316 126 q 321 127 325 127 q 365 134 386 146 q 408 158 412 163 q 496 230 547 376 q 568 434 573 493 q 577 552 544 584 q 478 630 366 513 q 359 505 351 492 q 353 497 354 500 q 368 535 370 565 q 373 596 346 611 q 324 619 272 591 q 220 562 161 520 q 102 478 59 445 q 16 411 13 408 q 3 399 2 391 q 0 383 2 378 q 9 362 31 356 q 53 350 68 349 q 73 349 77 352 q 81 355 82 361 q 82 366 78 370 q 75 374 70 375 q 56 376 43 379 q 31 382 27 386 q 27 387 30 390 q 57 414 123 462 q 189 510 252 550 q 315 589 334 588 q 337 587 340 584 q 343 581 344 573 q 346 565 343 550 q 340 535 330 509 q 317 477 282 395 q 248 313 207 220 q 167 126 137 59 q 107 -9 105 -14 q 104 -19 105 -23 q 107 -28 112 -30 q 117 -33 122 -31 q 126 -29 129 -24 q 129 -24 129 -24 q 129 -24 129 -24 q 129 -24 129 -24 q 131 -18 162 52 q 193 122 237 216 q 281 311 322 390 q 363 470 385 496 q 479 595 527 565 q 569 525 523 385 q 475 245 396 183 q 395 182 395 181 q 395 181 387 175 q 379 169 363 163 q 347 156 322 153 q 266 148 245 153 q 236 155 234 155 q 229 156 225 154 q 221 151 220 146 q 219 141 222 136 q 224 132 229 131 q 230 130 239 128 q 256 125 285 114 q 314 102 335 80 q 345 68 356 55 q 381 22 417 -13 q 452 -48 501 -66 q 551 -82 572 -86 q 594 -90 599 -90 z"},"T":{"x_min":0,"x_max":643,"ha":643,"o":"m 129 -12 l 129 -12 q 131 -12 132 -12 q 137 -11 140 -7 q 143 -3 142 1 q 147 22 184 113 q 220 203 268 322 q 317 441 360 546 q 362 551 360 555 q 358 560 354 562 q 349 564 344 562 q 339 561 337 556 q 335 550 302 469 q 268 389 225 283 q 201 223 183 179 q 165 135 153 104 q 141 74 133 54 q 126 34 122 22 q 119 10 118 4 q 117 -1 117 -4 q 118 -6 120 -8 q 124 -12 129 -12 z m 75 367 l 75 367 q 79 367 83 370 q 86 374 87 378 q 87 384 84 388 q 82 392 76 393 q 60 395 46 399 q 32 404 27 408 q 28 409 31 412 q 64 435 165 473 q 265 512 390 549 q 507 583 557 592 q 607 600 606 599 q 612 599 615 603 q 619 606 619 612 q 618 617 615 621 q 611 624 605 624 q 605 625 554 616 q 503 608 383 574 q 254 535 153 496 q 51 457 16 433 q 5 424 2 416 q 0 408 1 402 q 8 385 32 377 q 56 369 73 368 q 74 367 75 367 z"},"P":{"x_min":0,"x_max":602,"ha":602,"o":"m 117 -29 l 117 -29 q 125 -29 129 -21 l 129 -21 q 129 -21 129 -21 q 131 -15 163 55 q 194 125 238 219 q 282 313 323 393 q 363 473 385 498 q 479 597 528 567 q 569 528 524 387 q 475 248 396 185 q 355 155 333 151 q 311 147 294 160 l 262 183 q 257 186 252 185 q 248 184 244 179 q 241 175 242 170 q 243 165 248 162 l 280 139 q 339 103 411 165 q 496 232 548 379 q 568 436 573 495 q 577 554 544 586 q 478 633 366 515 q 359 508 351 495 q 353 499 354 503 q 368 537 370 568 q 373 598 346 614 q 325 622 273 593 q 221 565 161 523 q 102 480 59 447 q 16 414 13 411 q 3 401 2 394 q 0 386 2 381 q 10 365 31 359 q 53 353 68 352 q 73 352 77 355 q 81 358 82 363 q 82 369 79 373 q 75 376 70 377 q 56 378 44 382 q 31 385 27 388 q 28 390 30 392 q 57 416 123 464 q 189 513 252 552 q 315 592 334 591 q 337 590 341 587 q 344 583 345 576 q 346 568 343 552 q 340 537 331 512 q 318 480 284 400 q 250 320 209 228 q 169 135 140 67 q 110 -2 106 -11 q 106 -11 105 -11 q 105 -11 105 -11 l 105 -11 l 105 -11 q 104 -17 105 -21 q 107 -26 112 -28 q 115 -29 117 -29 z"},"|":{"x_min":0,"x_max":103,"ha":103,"o":"m 0 770 l 78 770 l 78 -204 l 0 -204 z"},"t":{"x_min":0,"x_max":291,"ha":291,"o":"m 13 -15 l 13 -15 q 14 -15 15 -15 q 20 -14 23 -10 q 26 -6 25 -1 q 30 17 61 96 q 91 175 132 278 q 173 382 209 473 q 211 478 209 483 q 208 487 203 489 q 197 491 193 489 q 188 487 186 482 q 184 478 156 407 q 128 337 91 245 q 71 192 56 154 q 41 115 30 88 q 20 61 14 43 q 8 26 5 16 q 1 6 1 0 q 0 -5 1 -7 q 1 -9 3 -11 q 7 -15 13 -15 z m 254 332 l 254 332 q 259 332 263 335 q 267 339 267 344 q 267 350 263 353 q 260 357 254 357 l 52 362 q 52 362 51 362 q 46 362 43 358 q 39 354 39 349 q 39 344 42 340 q 46 336 51 336 l 254 332 q 254 332 254 332 z"},"M":{"x_min":0,"x_max":712,"ha":712,"o":"m 108 11 l 108 11 q 115 11 120 18 q 120 18 120 19 q 125 27 157 87 q 189 146 233 226 q 276 306 315 375 q 354 445 373 474 q 396 511 408 528 q 421 546 427 551 q 428 545 428 539 q 428 532 428 529 q 428 515 415 456 q 403 396 387 326 q 374 266 365 225 q 356 183 351 156 q 345 130 343 115 q 341 99 342 92 q 342 85 344 82 q 347 80 351 79 q 352 78 355 77 q 358 77 362 79 q 366 81 370 86 q 372 90 371 94 q 371 99 367 102 q 370 129 384 193 q 397 257 412 321 q 453 498 453 529 q 453 547 451 562 q 448 576 437 581 q 429 583 419 577 q 409 571 393 551 q 377 530 351 488 q 327 448 274 353 q 335 487 356 538 q 372 572 374 602 q 377 633 351 648 q 330 657 277 630 q 224 603 164 562 q 104 521 60 488 q 17 456 14 453 q 4 444 2 436 q 0 429 2 423 q 9 407 31 401 q 52 394 67 393 q 72 393 76 396 q 81 399 81 404 q 82 410 78 414 q 75 417 70 418 q 56 419 43 423 q 31 427 27 430 q 28 432 30 434 q 57 457 122 502 q 186 547 251 587 q 316 626 336 626 q 337 626 339 626 q 341 625 344 622 q 348 619 349 611 q 350 603 347 588 q 343 572 333 547 q 319 515 283 434 q 246 353 204 260 q 161 168 130 101 q 99 34 97 29 q 95 24 96 20 q 98 15 103 12 q 105 11 108 11 z m 462 -27 l 462 -27 q 470 -27 475 -19 q 475 -19 475 -19 q 479 -7 512 82 q 546 171 588 288 q 612 355 629 406 q 646 456 658 492 q 669 527 675 551 q 682 575 685 589 q 688 604 688 611 q 688 619 687 622 q 686 625 684 627 q 680 632 672 632 q 670 632 668 631 q 666 630 662 625 q 658 621 650 610 q 643 600 632 582 q 620 564 603 535 q 585 507 561 466 q 537 425 503 369 q 443 266 398 188 q 353 109 348 99 q 345 94 347 89 q 348 84 353 82 q 358 80 363 81 q 367 83 370 87 q 379 104 433 198 q 487 291 551 400 q 615 508 655 572 q 630 480 569 309 q 507 138 451 -10 q 449 -15 451 -20 q 453 -24 458 -26 q 460 -27 462 -27 z m 663 614 l 663 614 l 663 614 z"},"g":{"x_min":0,"x_max":390,"ha":390,"o":"m 116 -190 l 116 -190 q 138 -190 149 -184 q 199 -169 260 -56 q 288 -3 311 61 q 334 125 349 174 q 363 222 365 228 q 366 232 364 237 q 362 241 357 243 q 353 245 349 243 q 344 242 342 238 l 319 202 q 278 140 243 119 q 234 113 228 117 q 222 120 219 125 q 215 131 214 137 q 213 149 218 167 q 222 184 231 200 q 243 220 258 230 q 273 241 284 244 q 292 246 300 243 q 309 239 314 235 q 319 232 324 233 q 329 234 332 238 q 335 243 334 248 q 333 252 329 256 q 328 257 319 262 q 311 267 299 269 q 288 272 275 268 q 262 264 243 251 q 225 238 209 213 q 199 196 193 175 q 187 153 189 133 q 191 123 198 112 q 204 101 216 94 q 235 85 255 96 q 290 119 316 154 q 301 107 281 53 q 260 0 237 -44 q 182 -148 141 -160 q 123 -167 104 -164 q 86 -161 67 -137 q 47 -107 36 -86 q 25 -65 25 -64 q 23 -59 18 -57 q 14 -56 8 -58 q 3 -60 2 -64 q 0 -69 2 -74 q 2 -76 14 -98 q 25 -121 47 -152 q 64 -174 82 -182 q 100 -190 116 -190 z"},"j":{"x_min":0,"x_max":418,"ha":418,"o":"m 116 -167 l 116 -167 q 138 -167 149 -162 q 200 -147 260 -33 q 288 20 313 88 q 338 156 355 208 q 372 261 374 267 q 375 272 373 276 q 371 280 366 282 q 361 284 357 282 q 353 281 350 276 q 350 276 350 276 q 351 276 319 225 q 279 162 244 141 q 239 139 238 134 q 236 129 239 124 q 241 120 246 118 q 251 117 256 119 q 293 143 319 181 q 303 131 281 76 q 260 21 238 -21 q 182 -125 141 -138 q 124 -144 105 -141 q 86 -138 68 -114 q 47 -85 37 -64 q 26 -43 25 -42 q 25 -42 25 -42 q 23 -37 18 -35 q 14 -33 9 -35 q 4 -37 2 -42 q 0 -46 2 -51 q 2 -53 14 -75 q 25 -98 47 -129 q 64 -152 83 -160 q 101 -167 116 -167 z m 376 313 l 376 313 q 385 313 389 322 l 393 333 q 394 339 392 343 q 389 348 384 350 q 379 351 375 349 q 370 346 368 341 l 365 329 q 363 324 365 320 q 368 315 373 313 q 375 313 376 313 z"},"i":{"x_min":0,"x_max":139,"ha":139,"o":"m 14 79 q 21 79 25 87 q 93 253 93 256 q 93 258 91 262 q 89 268 80 268 q 71 268 68 260 q 1 94 1 91 q 1 89 2 85 q 5 79 14 79 z m 92 283 q 100 283 104 292 q 108 306 108 308 q 108 311 106 314 q 104 320 96 320 q 87 320 83 312 q 80 298 80 296 q 80 293 82 289 q 85 283 92 283 z"},"y":{"x_min":0,"x_max":399,"ha":399,"o":"m 116 -188 l 116 -188 q 138 -188 149 -182 q 199 -167 260 -54 q 288 0 313 68 q 338 136 355 188 q 372 240 373 247 q 375 251 373 256 q 371 260 366 262 q 361 264 357 262 q 353 261 350 256 q 350 256 350 256 q 350 255 319 204 q 280 144 245 122 q 243 122 238 121 q 233 121 229 122 q 224 123 220 126 q 216 129 215 141 q 214 152 222 177 l 251 267 q 253 272 250 277 q 248 281 243 283 q 238 285 233 282 q 229 280 227 275 l 198 186 q 180 132 202 109 q 209 102 217 99 q 226 96 234 96 q 242 96 247 97 q 252 98 252 98 q 254 98 256 99 q 292 123 319 160 q 303 111 281 56 q 260 1 237 -42 q 182 -146 141 -158 q 123 -165 104 -162 q 86 -159 68 -134 q 47 -105 36 -84 q 25 -63 25 -62 q 25 -62 25 -62 q 23 -57 18 -55 q 14 -53 9 -55 q 3 -57 2 -62 q 0 -66 2 -72 q 2 -74 14 -96 q 25 -118 47 -149 q 64 -172 82 -180 q 100 -188 116 -188 z"},"@":{"x_min":0,"x_max":525,"ha":525,"o":"m 185 -118 l 185 -118 q 200 -118 217 -116 q 278 -107 317 -84 q 355 -61 382 -38 l 427 -1 q 431 2 431 8 q 432 13 429 17 q 425 21 420 21 q 415 22 411 19 l 366 -18 q 340 -41 304 -62 q 269 -83 213 -91 q 149 -98 113 -77 q 77 -55 61 -27 q 41 8 33 60 q 26 112 35 158 q 56 261 146 363 q 184 405 233 433 q 282 460 323 470 q 373 482 398 471 q 423 461 437 441 q 474 389 461 289 q 453 242 421 183 q 389 123 356 93 q 335 76 324 78 q 318 80 313 87 q 309 95 305 103 q 302 114 310 153 q 318 192 331 236 q 333 241 330 245 q 328 250 323 251 q 318 253 313 251 q 309 249 307 244 q 307 244 306 241 q 303 256 290 269 q 277 282 253 280 q 226 278 200 265 q 175 252 154 211 q 142 187 137 147 q 133 108 158 85 q 192 63 220 80 q 249 97 270 126 q 276 134 282 143 q 276 108 282 92 q 287 81 295 69 q 304 57 319 53 q 342 48 372 74 q 409 106 443 170 q 478 234 486 286 q 500 396 457 457 q 441 479 410 494 q 378 508 317 495 q 273 484 220 455 q 168 425 126 380 q 33 272 10 163 q 0 112 8 56 q 17 0 40 -40 q 90 -118 185 -118 z m 259 255 l 259 255 q 269 255 273 250 q 278 245 280 239 q 282 233 283 230 q 283 225 287 222 q 292 219 297 220 q 282 185 250 142 q 229 116 215 106 q 200 97 190 99 q 181 100 173 106 q 160 118 163 147 q 166 176 177 200 q 193 232 213 243 q 232 253 256 255 q 257 255 259 255 z"},".":{"x_min":0,"x_max":55,"ha":55,"o":"m 14 91 l 14 91 q 21 91 25 101 l 29 111 q 30 116 28 121 q 25 125 21 127 q 15 128 11 126 q 6 124 5 119 l 1 108 q 0 103 2 98 q 4 94 10 92 q 12 91 14 91 z"},"p":{"x_min":0,"x_max":308,"ha":308,"o":"m 0 252 l 0 252 l 0 252 z m 27 -122 l 27 -122 q 35 -122 39 -114 q 54 -77 79 -19 q 104 39 130 96 q 134 91 146 85 q 158 78 181 78 q 181 78 181 78 q 210 80 236 105 q 261 131 271 163 q 282 195 283 216 q 284 237 270 255 q 259 268 242 269 q 208 269 170 226 q 169 226 168 225 l 175 243 q 177 248 175 253 q 173 257 168 259 q 163 261 158 259 q 154 257 152 252 l 16 -104 q 14 -109 16 -114 q 18 -119 22 -121 q 25 -122 27 -122 z m 140 118 l 140 118 q 173 190 188 209 q 225 246 241 244 q 247 244 250 240 q 258 230 257 216 q 257 202 247 170 q 239 144 219 124 q 199 104 181 104 q 181 104 181 104 q 169 104 162 106 q 155 108 152 110 q 148 113 148 113 q 148 113 148 113 q 145 118 140 118 z"},"X":{"x_min":0,"x_max":715,"ha":715,"o":"m 488 -26 l 488 -26 q 490 -26 491 -26 q 496 -25 499 -21 q 501 -16 500 -11 q 500 -6 485 60 q 470 126 450 218 q 430 310 413 391 q 396 473 391 507 l 391 511 q 385 555 378 578 q 371 601 351 611 q 330 620 277 593 q 224 565 164 524 q 104 483 60 451 q 17 418 14 416 q 4 407 2 399 q 0 391 2 386 q 9 370 31 363 q 52 356 67 355 q 73 355 77 358 q 81 361 81 367 q 82 372 78 376 q 75 380 70 381 q 56 382 43 386 q 31 389 27 393 q 28 394 30 396 q 57 419 122 465 q 186 510 251 550 q 316 589 336 589 q 337 589 339 589 q 350 583 355 566 q 360 548 365 508 l 366 503 q 371 469 388 389 q 404 309 424 219 q 444 128 459 61 q 474 -7 476 -17 q 477 -21 480 -24 q 484 -26 488 -26 z m 54 -98 l 54 -98 q 59 -98 63 -94 l 688 576 q 691 580 691 585 q 691 590 687 594 q 683 598 678 597 q 673 597 669 593 l 44 -76 q 41 -80 41 -85 q 41 -90 45 -94 q 49 -98 54 -98 z"},"*":{"x_min":0,"x_max":311,"ha":311,"o":"m 137 632 q 135 667 119 695 q 101 728 101 736 q 101 752 112 761 q 124 771 143 771 q 161 771 173 762 q 185 753 185 739 q 185 729 167 696 q 151 666 149 632 q 181 645 204 669 q 229 696 238 699 q 243 700 248 700 q 257 700 265 695 q 278 687 284 669 q 287 660 287 652 q 287 645 285 638 q 280 624 266 620 q 263 619 257 619 q 245 619 220 623 q 206 625 193 625 q 173 625 153 620 q 175 593 205 580 q 238 564 243 557 q 250 548 250 538 q 250 534 249 530 q 245 515 229 504 q 215 493 201 493 q 200 493 200 494 q 185 494 177 505 q 171 513 166 551 q 161 583 143 612 q 125 583 121 551 q 116 515 111 507 q 102 495 87 494 l 84 494 q 71 494 57 504 q 42 515 38 529 q 36 534 36 539 q 36 547 41 555 q 47 563 82 580 q 111 594 133 620 q 113 625 94 625 q 81 625 68 623 q 42 617 30 617 q 25 617 23 618 q 8 623 3 637 q 0 643 0 651 q 0 659 3 668 q 8 686 21 694 q 29 700 37 700 q 42 700 46 699 q 56 696 82 668 q 105 645 137 632 z"},"Y":{"x_min":0,"x_max":635,"ha":635,"o":"m 220 -142 l 220 -142 q 248 -142 282 -128 q 316 -118 346 -91 q 376 -65 421 19 q 444 65 484 183 q 524 301 560 416 q 596 530 607 568 q 610 575 610 576 q 611 581 608 585 q 606 589 601 591 q 596 592 591 590 q 587 588 585 583 q 585 582 583 577 q 583 576 583 576 q 579 559 537 458 q 520 416 510 394 q 500 372 487 350 q 475 328 451 288 l 435 261 q 387 182 347 145 q 308 108 269 88 q 245 75 231 81 q 223 84 219 90 q 215 95 213 99 q 211 103 209 112 q 208 120 217 146 q 226 171 238 199 q 239 201 253 234 q 266 268 286 316 q 305 364 324 412 q 344 459 356 490 q 371 524 374 555 q 377 585 351 601 q 330 609 277 582 q 224 555 164 514 q 104 474 60 441 q 17 408 14 405 q 4 396 2 389 q 0 381 2 375 q 9 359 31 353 q 52 346 67 345 q 72 345 76 348 q 80 351 81 356 q 82 362 78 366 q 75 370 70 371 q 56 372 43 375 q 31 379 27 383 q 27 384 30 386 q 58 410 125 457 q 191 503 255 542 q 319 580 339 579 q 341 578 344 574 q 348 571 349 563 q 350 555 346 540 q 343 525 333 500 q 320 469 301 422 q 282 374 262 326 q 243 277 229 244 q 216 211 215 209 q 209 196 201 175 q 193 155 188 135 q 184 121 184 112 q 184 108 185 105 q 187 90 194 79 q 202 67 221 58 q 247 46 281 66 q 321 87 364 126 q 406 165 457 248 l 473 275 q 495 312 507 333 q 476 235 446 150 q 416 64 398 30 q 371 -22 350 -49 q 330 -75 312 -86 q 293 -98 272 -105 q 199 -135 165 -90 q 142 -59 135 -42 q 128 -26 129 -25 q 129 -25 129 -25 q 128 -20 125 -17 q 121 -14 116 -14 q 110 -14 107 -18 q 104 -22 104 -27 q 103 -30 110 -50 q 118 -70 145 -106 q 173 -142 220 -142 z"},"c":{"x_min":0,"x_max":181,"ha":181,"o":"m 51 88 l 51 88 q 62 88 75 93 q 142 116 141 118 q 145 120 147 125 q 148 130 146 135 q 143 139 138 141 q 133 142 129 140 q 131 139 67 117 q 48 111 39 117 q 33 122 30 131 q 27 140 26 149 q 25 165 30 178 q 35 191 40 200 q 45 208 46 208 q 68 238 110 240 q 118 240 123 238 q 127 235 129 231 q 130 228 131 226 q 132 220 136 218 q 141 215 146 216 q 151 217 154 221 q 157 226 156 231 q 154 241 143 253 q 132 266 109 266 q 55 262 26 224 q 25 223 18 212 q 12 202 6 185 q 0 168 1 147 q 4 110 25 96 q 36 88 51 88 z"},"!":{"x_min":0,"x_max":273,"ha":273,"o":"m 46 64 l 46 64 q 54 64 58 73 l 248 616 q 249 621 247 626 q 245 630 240 632 q 234 634 230 632 q 226 629 224 625 l 34 81 q 33 76 35 71 q 37 67 42 65 q 44 64 46 64 z m 13 -20 l 13 -20 q 21 -20 25 -11 l 29 2 q 31 8 28 12 q 26 17 21 18 q 16 20 11 17 q 7 15 5 10 l 1 -4 q 0 -9 2 -13 q 5 -18 10 -20 q 12 -20 13 -20 z"},"/":{"x_min":0,"x_max":281,"ha":281,"o":"m 14 7 l 14 7 q 21 7 25 15 l 254 557 q 257 566 250 572 q 242 578 234 573 l 212 526 l 2 25 q 0 21 2 16 q 4 11 9 8 q 12 7 14 7 z"},"[":{"x_min":0,"x_max":325,"ha":325,"o":"m 94 -3 l 94 -3 q 100 -3 103 0 q 106 4 107 9 q 107 14 104 18 q 100 21 95 22 l 30 25 l 230 609 l 287 606 q 292 606 296 609 q 300 613 300 618 q 300 623 297 627 q 293 630 289 631 l 223 634 q 213 634 210 625 l 2 18 q 0 12 3 7 q 7 1 13 1 l 94 -3 q 94 -3 94 -3 q 94 -3 94 -3 z"},"6":{"x_min":0,"x_max":398,"ha":398,"o":"m 137 1 l 137 1 q 196 1 260 31 q 343 75 368 195 q 374 233 362 261 q 351 289 333 306 q 315 323 305 329 q 285 339 232 339 q 178 339 132 314 q 111 300 87 275 q 63 250 44 224 q 57 280 104 373 q 139 437 186 491 q 232 545 265 558 q 285 565 304 565 q 324 564 337 562 q 351 559 351 558 l 351 558 q 356 557 361 559 q 365 561 367 566 q 369 571 366 576 q 364 581 359 582 q 357 583 342 586 q 327 590 303 590 q 280 590 256 582 q 215 565 166 506 q 116 448 81 384 q 25 270 15 213 q 13 207 11 194 q 10 193 10 191 l 6 171 l 5 168 q 5 166 5 164 q 5 163 5 163 q 5 163 5 163 q 0 127 11 79 q 22 31 66 12 q 96 2 137 1 z m 30 164 l 30 164 l 31 164 q 37 173 56 198 q 75 224 100 251 q 124 279 146 292 q 171 307 202 311 q 233 315 259 313 q 284 311 291 307 q 308 298 329 271 q 349 245 343 200 q 321 92 249 53 q 202 30 155 27 q 107 24 74 36 q 44 49 35 88 q 26 127 30 160 q 30 162 30 164 z"},"r":{"x_min":0,"x_max":189,"ha":189,"o":"m 14 73 l 14 73 q 21 73 25 81 q 25 81 25 81 q 25 81 25 82 q 28 89 41 114 q 53 138 71 166 q 89 194 107 210 q 119 220 127 228 q 133 233 138 237 q 140 208 139 207 q 139 202 142 198 q 145 194 150 193 q 156 193 160 196 q 164 200 164 205 q 165 207 163 245 q 163 250 161 257 q 159 264 151 268 q 143 271 134 266 q 125 260 110 247 q 102 239 91 230 q 82 222 73 211 q 79 229 82 240 q 85 250 86 256 q 87 262 86 265 q 85 268 83 270 q 78 275 73 275 q 68 275 66 274 q 66 274 65 274 q 65 274 64 274 q 59 273 56 269 q 53 265 53 260 q 54 254 59 251 q 53 232 40 192 q 21 141 13 118 q 4 96 2 92 q 2 92 2 91 q 2 91 2 91 q 0 86 2 82 q 3 77 8 75 q 11 73 14 73 z"},"2":{"x_min":0,"x_max":496,"ha":496,"o":"m 352 -2 l 352 -2 q 357 -2 361 2 q 365 5 365 11 q 365 16 361 20 q 357 23 352 23 l 33 23 l 50 63 q 68 106 119 161 q 170 215 247 260 q 419 358 453 419 q 472 455 465 495 q 459 535 419 563 q 323 618 215 547 q 188 526 175 503 q 162 480 157 463 q 153 446 153 444 q 153 438 156 435 q 159 431 165 430 q 169 429 174 432 q 178 436 178 441 q 178 442 182 456 q 186 470 197 490 q 208 509 230 526 q 280 560 327 561 q 374 562 405 542 q 436 521 440 490 q 445 458 431 432 q 398 376 234 282 q 154 235 100 177 q 46 119 27 74 l 2 16 q 0 9 3 4 q 8 -2 14 -2 z"},"{":{"x_min":0,"x_max":291,"ha":291,"o":"m 50 -10 l 50 -10 q 62 -10 72 -4 q 82 1 87 6 q 93 11 94 12 q 97 16 97 21 q 96 26 92 30 q 88 33 83 33 q 78 33 75 29 q 74 28 72 26 q 69 23 65 21 q 61 18 55 16 q 50 15 44 17 q 33 19 29 26 q 25 33 30 54 q 33 66 43 95 q 53 123 63 154 q 94 238 95 250 q 96 259 94 275 q 93 292 79 306 q 101 314 117 345 q 131 377 144 422 q 155 466 168 496 q 182 525 195 544 q 208 562 213 565 q 220 570 224 571 q 228 572 229 571 q 229 571 230 571 q 231 570 233 567 q 235 565 237 561 l 241 551 q 243 546 248 544 q 253 542 258 545 q 263 547 264 552 q 266 557 264 562 l 260 571 q 251 591 236 596 q 227 599 217 596 q 208 593 200 587 q 190 581 175 558 q 159 535 146 506 q 131 474 119 429 q 107 385 95 355 q 89 344 82 338 q 74 331 67 328 q 60 324 55 323 q 50 322 49 322 q 40 321 38 313 q 36 304 43 299 l 60 289 q 73 281 69 252 q 68 245 59 218 q 50 191 40 163 q 28 129 18 101 q 9 73 5 59 q 0 38 5 20 q 9 2 37 -8 q 43 -10 50 -10 z"},"9":{"x_min":0,"x_max":471,"ha":471,"o":"m 152 9 l 152 9 q 186 9 211 21 q 274 50 347 231 q 367 282 387 344 q 407 405 421 458 q 438 502 442 524 q 446 546 446 547 q 446 552 443 556 q 440 559 435 560 q 427 560 422 553 q 414 569 396 586 q 377 603 347 607 q 302 611 250 594 q 198 577 161 539 q 128 502 107 458 q 85 414 74 377 q 51 309 83 246 q 101 209 144 196 q 186 182 237 207 q 304 242 349 308 q 336 271 323 239 q 255 70 201 43 q 178 33 143 35 q 108 37 81 51 q 64 60 52 73 q 39 85 32 94 q 25 104 24 105 q 21 109 17 110 q 12 111 7 108 q 2 104 1 100 q 0 95 3 90 q 3 89 11 78 q 20 67 34 53 q 48 39 67 28 q 106 9 152 9 z m 329 582 l 329 582 q 336 582 343 582 q 360 580 372 571 q 384 563 391 552 q 399 542 403 534 q 406 526 406 525 q 408 521 413 519 q 407 497 397 464 q 388 438 373 404 q 337 323 300 285 q 262 247 226 229 q 187 209 153 220 q 120 230 105 258 q 79 312 98 371 q 131 470 179 522 q 208 552 250 567 q 292 582 329 582 z"}," ":{"x_min":0,"x_max":89,"ha":89,"o":""},"I":{"x_min":0,"x_max":401,"ha":401,"o":"m 108 12 l 108 12 q 116 12 120 20 q 122 24 153 92 q 184 159 227 251 q 269 344 306 425 q 343 506 356 539 q 371 573 374 604 q 377 634 351 650 q 330 658 277 631 q 224 604 164 563 q 104 522 60 490 q 17 457 14 454 q 4 445 2 438 q 0 430 2 425 q 9 409 31 402 q 52 396 67 394 q 72 394 76 397 q 80 400 81 405 q 81 411 78 415 q 75 419 70 419 q 56 421 43 425 q 31 428 27 432 q 27 433 30 435 q 58 459 125 506 q 191 552 255 591 q 319 629 339 627 q 341 626 344 623 q 348 620 349 612 q 350 604 346 589 q 343 574 333 549 q 319 516 283 435 q 246 354 204 262 q 161 169 130 102 q 99 35 97 30 q 95 25 96 21 q 98 16 103 14 q 105 12 108 12 z"},"H":{"x_min":0,"x_max":574,"ha":574,"o":"m 83 -61 l 83 -61 q 90 -61 94 -53 q 97 -48 132 28 q 167 104 214 208 q 261 312 302 402 q 342 492 356 525 q 371 559 374 590 q 377 620 350 636 q 329 645 277 617 q 224 590 164 549 q 104 508 60 476 q 17 443 13 440 q 3 431 2 424 q 0 416 2 411 q 9 395 31 388 q 52 381 67 380 q 72 380 76 383 q 80 386 81 392 q 81 397 78 401 q 75 405 69 405 q 55 407 43 411 q 31 414 26 417 q 27 419 30 421 q 58 445 124 492 q 191 539 255 577 q 319 615 338 614 q 341 613 344 609 q 347 606 348 598 q 350 590 346 575 q 343 560 333 535 q 319 502 279 412 q 238 323 191 219 q 144 115 109 39 q 74 -37 71 -42 q 69 -47 71 -52 q 73 -57 78 -60 q 80 -61 83 -61 z m 83 140 l 83 140 q 83 140 83 140 l 423 150 q 428 150 432 154 q 435 158 435 164 q 435 169 431 172 q 428 176 422 176 l 83 165 q 77 165 74 161 q 70 157 70 152 q 70 147 74 143 q 78 140 83 140 z m 300 -29 l 300 -29 q 301 -29 302 -29 q 307 -28 310 -24 q 312 -21 312 -16 q 318 4 357 94 q 396 184 448 301 q 501 418 548 521 q 550 526 548 531 q 546 536 542 539 q 537 541 532 539 q 527 537 525 532 q 522 527 487 447 q 451 368 404 263 q 378 204 359 161 q 339 117 326 87 q 313 57 305 37 q 297 17 293 6 q 289 -6 288 -12 q 287 -18 287 -20 q 288 -22 290 -24 q 294 -29 300 -29 z"},"4":{"x_min":0,"x_max":419,"ha":419,"o":"m 177 -6 l 177 -6 q 184 -6 188 1 q 237 110 285 219 q 333 327 364 403 q 395 479 395 490 q 394 496 390 499 q 386 502 381 501 q 376 500 373 497 q 370 494 370 489 q 366 473 332 392 q 298 311 251 206 q 205 101 165 11 q 163 6 165 2 q 167 -3 171 -5 q 174 -6 177 -6 z m 81 198 l 81 198 q 121 198 160 204 q 200 209 216 213 l 282 226 q 288 227 290 231 q 293 235 292 241 q 291 246 287 249 q 283 251 277 251 l 211 238 q 55 212 27 230 q 39 259 110 355 q 182 452 271 562 q 274 566 273 572 q 273 577 269 580 q 265 583 260 583 q 254 582 251 578 q 251 578 250 578 q 246 572 208 524 q 170 476 122 414 q 89 370 67 339 q 44 309 31 288 q 18 267 11 254 q 4 242 2 235 q 0 228 1 224 q 2 221 4 218 q 28 198 81 198 z"},"~":{"x_min":0,"x_max":429,"ha":429,"o":"m 405 429 l 405 353 q 374 317 345 305 q 316 292 289 292 q 259 292 202 316 q 145 340 116 340 q 91 340 63 326 q 36 312 0 271 l 0 348 q 31 383 60 396 q 89 409 116 409 q 147 409 204 385 q 262 360 289 360 q 314 360 342 374 q 369 388 405 429 z"},"D":{"x_min":0,"x_max":609,"ha":609,"o":"m 208 -82 l 208 -82 q 264 -82 314 -48 q 365 -15 391 19 q 501 157 553 336 q 584 448 579 514 q 574 579 550 602 q 543 609 532 616 q 521 622 506 622 q 463 622 392 545 q 363 514 324 449 q 347 500 356 523 q 372 557 375 588 q 377 619 351 634 q 330 643 277 615 q 225 588 164 548 q 104 507 60 474 q 17 441 14 438 q 4 430 2 422 q 0 414 2 409 q 9 393 31 386 q 53 380 67 378 q 73 378 77 381 q 81 385 81 390 q 82 395 78 399 q 75 403 70 404 q 56 405 43 409 q 31 413 27 416 q 28 417 30 419 q 58 443 125 490 q 192 537 256 575 q 320 613 339 612 q 342 611 345 608 q 348 604 349 596 q 350 588 347 573 q 343 558 333 533 q 320 500 283 420 q 246 339 204 246 q 161 154 130 87 q 99 20 97 15 q 95 10 97 5 q 99 0 104 -2 q 108 -4 113 -2 q 118 0 120 4 q 122 9 154 75 q 187 141 234 234 q 281 326 329 408 q 377 491 410 528 q 474 596 507 597 q 520 597 532 583 q 549 570 554 512 q 560 454 529 343 q 479 168 371 34 q 349 5 299 -28 q 248 -61 191 -56 q 155 -50 125 -40 q 95 -30 77 -22 q 59 -14 58 -14 q 53 -11 48 -13 q 43 -14 41 -19 q 39 -23 40 -28 q 42 -33 46 -36 q 49 -39 89 -55 q 129 -71 188 -81 q 198 -82 208 -82 z"},"^":{"x_min":0,"x_max":24,"ha":24,"o":""},"0":{"x_min":0,"x_max":387,"ha":387,"o":"m 111 17 l 111 17 q 116 17 122 18 q 158 20 194 38 q 230 57 271 125 q 310 193 336 279 q 363 364 363 423 q 363 487 331 540 q 298 593 236 597 q 231 598 216 598 q 201 598 179 591 q 158 583 133 562 q 83 513 53 437 q 24 361 16 325 q 0 256 4 189 q 9 121 16 96 q 23 69 48 44 q 73 19 111 17 z m 220 573 l 220 573 q 230 573 231 572 q 233 571 234 571 q 291 567 314 518 q 337 468 337 423 q 337 375 314 292 q 291 210 250 138 q 213 77 183 61 q 152 45 119 43 q 88 41 67 60 q 46 80 41 103 q 34 124 30 188 q 25 253 41 319 q 57 382 85 445 q 113 509 149 543 q 172 562 191 567 q 209 573 220 573 z"},"F":{"x_min":0,"x_max":442,"ha":442,"o":"m 83 -80 l 83 -80 q 91 -80 95 -72 q 98 -66 132 13 q 167 93 214 202 q 262 312 302 405 q 343 499 356 532 q 372 565 375 596 q 377 626 351 643 q 330 651 277 624 q 225 596 164 555 q 104 515 60 482 q 17 449 14 447 q 4 438 2 430 q 0 422 2 417 q 9 401 31 394 q 53 388 67 387 q 73 386 77 389 q 81 393 81 398 q 82 403 78 407 q 75 411 70 412 q 56 414 43 417 q 31 420 27 424 q 28 425 30 428 q 58 451 125 498 q 192 545 256 583 q 320 622 339 620 q 342 619 345 616 q 348 612 349 604 q 350 597 347 582 q 343 566 333 541 q 320 509 280 417 q 241 326 194 218 q 147 110 112 30 q 77 -51 72 -62 q 72 -62 72 -62 q 70 -67 72 -72 q 73 -76 78 -79 q 81 -80 83 -80 z m 318 200 l 318 200 q 323 200 327 203 q 331 207 331 212 q 331 213 332 229 q 333 245 335 268 q 363 282 385 304 q 408 326 414 349 q 418 368 406 381 q 391 398 370 394 q 335 384 320 333 q 314 311 311 284 q 311 284 310 284 q 275 272 216 279 q 157 287 124 295 q 119 296 115 294 q 110 291 109 286 q 108 281 111 276 q 113 272 118 271 q 123 269 156 263 q 190 256 233 253 q 275 249 308 256 q 307 238 306 226 q 306 214 306 213 q 306 208 309 204 q 312 200 318 200 q 318 200 318 200 z m 378 370 l 378 370 q 382 370 387 364 q 389 363 389 361 q 390 358 389 354 q 386 342 373 327 q 359 312 339 299 q 341 314 344 326 q 350 345 359 356 q 368 368 375 370 q 376 370 378 370 z"},"`":{"x_min":0,"x_max":250,"ha":250,"o":"m 225 527 l 191 527 l 30 625 q 15 635 8 645 q 0 655 0 666 q 0 681 10 690 q 20 700 36 700 q 46 700 56 694 q 66 688 83 671 z"},"k":{"x_min":0,"x_max":283,"ha":283,"o":"m 14 -19 l 14 -19 q 21 -19 25 -10 l 215 482 q 217 487 215 491 q 213 496 208 498 q 203 500 198 498 q 194 496 192 491 l 2 -1 q 0 -6 2 -11 q 4 -16 9 -18 q 11 -19 14 -19 z m 188 94 l 188 94 q 195 94 199 101 q 202 105 200 110 q 198 115 193 118 l 92 167 l 252 272 q 257 275 258 280 q 259 285 256 290 q 253 294 248 295 q 243 296 238 293 l 60 175 q 54 171 54 164 q 55 157 61 153 l 183 95 q 185 94 188 94 z"},"u":{"x_min":0,"x_max":209,"ha":209,"o":"m 50 95 l 50 95 q 76 95 104 126 q 119 143 136 167 l 123 122 q 121 116 123 112 q 125 107 131 105 q 136 104 140 107 q 145 109 146 114 l 184 235 q 185 240 183 244 q 181 249 177 250 q 173 252 168 251 q 164 250 161 246 q 161 246 153 234 q 145 222 133 205 q 121 188 108 172 q 96 155 85 144 q 72 129 63 124 q 54 120 48 120 q 42 121 40 123 q 29 129 34 165 q 38 182 47 202 q 56 222 63 237 q 71 251 72 252 q 75 257 73 262 q 72 267 67 270 q 62 272 58 271 q 53 270 50 265 q 49 263 41 248 q 32 232 23 210 q 14 189 9 169 q 0 116 28 101 q 39 95 50 95 z"},"]":{"x_min":0,"x_max":325,"ha":325,"o":"m 78 -3 l 78 -3 q 86 -3 90 6 l 298 614 q 300 620 297 625 q 293 630 287 630 l 207 634 q 201 634 198 631 q 194 627 193 622 q 193 617 197 614 q 200 610 205 609 l 270 606 l 70 22 l 13 25 q 8 25 4 22 q 0 19 0 14 q 0 8 3 5 q 6 1 12 0 l 78 -3 q 78 -3 78 -3 z"},"U":{"x_min":0,"x_max":713,"ha":713,"o":"m 277 3 l 277 3 q 292 3 309 8 l 315 10 q 358 21 404 47 q 450 73 494 143 l 450 21 q 448 15 450 10 q 452 6 458 4 q 462 2 467 5 q 472 7 474 12 l 604 375 q 616 407 631 445 q 689 604 685 602 q 686 607 684 611 q 681 616 676 617 q 671 619 667 616 q 663 614 661 609 l 580 384 q 528 256 481 173 q 440 98 396 72 q 352 45 308 34 l 302 33 q 268 22 242 39 q 217 55 213 85 q 210 104 212 118 q 213 133 215 141 q 217 149 218 149 q 218 150 218 151 q 223 164 250 234 q 277 304 308 383 q 339 462 356 504 q 371 538 374 568 q 377 599 351 615 q 330 623 277 596 q 224 569 164 528 q 104 487 60 455 q 17 422 14 419 q 4 410 2 403 q 0 395 2 390 q 9 374 31 367 q 52 360 67 359 q 72 359 76 362 q 80 365 81 371 q 82 376 78 380 q 75 384 70 384 q 56 386 43 389 q 31 393 27 396 q 27 398 30 400 q 58 424 125 471 q 191 518 255 556 q 319 594 339 593 q 341 591 344 588 q 348 585 349 577 q 350 569 346 554 q 343 539 333 514 q 320 482 298 426 q 275 369 252 308 q 228 247 212 204 q 195 162 194 159 q 193 157 188 136 q 184 115 188 82 q 194 41 229 17 q 245 3 277 3 z"},"o":{"x_min":0,"x_max":219,"ha":219,"o":"m 63 83 l 63 83 q 74 83 87 86 q 131 98 170 153 q 195 190 186 229 q 179 253 158 263 q 150 267 141 269 q 138 271 127 272 q 116 273 102 270 q 96 270 77 262 q 59 255 41 235 q 21 212 10 180 q 0 147 8 122 q 23 83 63 83 z m 106 245 l 106 245 q 107 245 108 246 q 114 247 120 247 q 125 247 129 246 q 133 245 134 245 q 134 245 134 245 q 134 245 135 245 q 142 243 147 241 q 158 235 161 223 q 164 215 162 200 q 161 186 149 168 q 116 121 81 111 q 62 106 52 110 q 42 114 37 120 q 33 126 32 130 q 26 148 35 174 q 44 200 60 218 q 69 229 80 235 q 90 241 98 243 q 105 245 106 245 z"},"N":{"x_min":0,"x_max":729,"ha":729,"o":"m 108 -3 l 108 -3 q 115 -3 120 4 q 122 9 153 76 q 184 144 227 236 q 269 329 306 410 q 343 491 356 524 q 371 558 374 588 q 377 619 351 635 q 329 643 277 616 q 224 589 164 548 q 104 507 60 475 q 17 442 14 439 q 3 430 2 422 q 0 415 2 409 q 9 393 31 386 q 52 380 67 379 q 72 378 76 382 q 80 385 81 390 q 81 396 78 399 q 75 403 69 404 q 55 406 43 409 q 31 413 27 417 q 27 417 30 420 q 58 444 125 490 q 191 537 255 575 q 319 614 338 612 q 341 611 344 608 q 347 605 348 597 q 350 589 346 574 q 343 559 333 534 q 319 501 283 420 q 246 339 204 247 q 161 154 130 87 q 99 20 97 15 q 95 10 96 6 q 98 1 103 -1 q 105 -3 108 -3 z m 417 -8 l 417 -8 q 425 -8 436 1 q 465 32 508 120 q 551 208 595 312 q 638 416 669 494 q 699 572 704 583 q 705 588 703 593 q 701 597 696 599 q 691 601 686 599 q 682 597 680 592 q 678 586 648 510 q 618 434 575 329 q 531 225 489 137 q 446 48 418 19 q 417 18 417 18 q 394 43 383 215 q 372 386 374 590 q 374 595 370 599 q 367 603 361 603 q 356 603 352 599 q 349 595 349 590 q 349 584 349 501 q 349 417 353 306 q 356 219 362 161 q 367 104 373 71 q 379 38 386 21 q 392 5 398 0 q 403 -5 408 -6 q 411 -8 417 -8 z m 417 17 l 417 17 l 417 17 z"},"+":{"x_min":0,"x_max":264,"ha":264,"o":"m 227 164 l 227 164 q 232 164 236 167 q 240 171 240 176 q 240 181 236 185 q 232 189 227 189 l 13 189 q 7 189 4 185 q 0 181 0 176 q 0 171 4 167 q 7 164 13 164 z m 77 64 l 77 64 q 84 64 89 72 l 172 271 q 174 276 172 281 q 170 285 166 287 q 161 289 156 287 q 151 286 149 281 l 65 82 q 63 76 65 72 q 67 67 72 65 q 75 64 77 64 z"},"G":{"x_min":0,"x_max":531,"ha":531,"o":"m 168 -86 l 168 -86 q 188 -86 215 -78 q 289 -53 350 53 q 364 79 388 136 q 412 193 438 257 q 463 321 481 368 q 500 416 502 422 q 504 427 502 432 q 500 437 495 438 q 490 440 486 439 q 481 437 479 432 l 463 399 q 454 377 423 324 q 393 271 345 216 q 299 167 261 154 q 223 141 193 146 q 167 149 155 166 q 142 184 138 202 q 133 221 133 229 q 131 260 144 322 q 158 383 191 450 q 270 597 364 615 q 408 619 432 602 q 456 584 472 562 l 475 557 q 476 556 476 556 q 474 556 473 556 q 467 557 463 554 q 459 552 458 547 q 457 542 459 537 q 462 533 467 532 q 474 530 485 530 q 496 531 502 540 q 506 546 505 553 q 504 560 500 565 q 497 570 495 573 l 492 577 q 476 601 445 623 q 415 645 360 640 q 253 621 168 461 q 133 391 119 326 q 105 261 108 227 q 110 190 130 158 q 149 126 190 121 q 286 110 364 199 q 390 228 411 258 q 386 197 364 143 q 341 90 328 65 q 271 -31 208 -54 q 175 -63 152 -59 q 128 -55 99 -41 q 76 -30 55 -7 q 34 16 27 31 q 58 33 61 32 q 61 32 61 32 q 66 32 70 35 q 74 39 74 44 q 74 50 70 53 q 67 57 62 58 q 59 58 19 55 q 4 53 1 39 q 0 25 14 4 q 28 -17 49 -36 q 70 -55 89 -64 q 126 -86 168 -86 z"},"q":{"x_min":0,"x_max":223,"ha":223,"o":"m 19 -162 l 19 -162 q 25 -162 29 -157 q 47 -134 64 -115 q 82 -97 92 -90 q 101 -128 100 -127 q 101 -132 105 -135 q 109 -139 114 -138 q 119 -137 122 -133 q 125 -129 125 -124 q 125 -124 123 -113 q 121 -103 115 -79 q 111 -66 100 -63 q 86 -61 63 -81 l 196 225 q 199 230 197 235 q 195 240 190 242 q 185 244 180 242 q 176 240 173 235 l 173 235 q 172 238 170 240 q 170 241 165 246 q 160 251 151 256 q 142 262 130 264 q 118 267 103 264 q 76 255 52 233 q 27 211 18 186 q 0 131 18 98 q 21 91 27 84 q 33 78 43 74 q 63 68 95 86 q 105 92 114 99 l 8 -145 q 6 -149 7 -153 q 9 -158 13 -161 q 16 -162 19 -162 z m 118 240 l 118 240 q 127 240 135 236 q 143 232 147 228 q 151 224 151 224 q 155 220 159 219 q 163 219 167 221 l 157 198 q 128 135 83 109 q 69 101 61 99 q 54 97 51 99 q 49 99 46 101 q 43 104 40 110 q 27 134 42 178 q 49 197 69 215 q 88 233 110 239 q 114 240 118 240 z"},"d":{"x_min":0,"x_max":298,"ha":298,"o":"m 108 74 l 108 74 q 115 74 120 82 l 272 452 q 274 457 272 461 q 270 466 265 468 q 260 470 256 468 q 251 466 249 461 l 205 362 q 177 298 153 258 q 148 267 138 272 q 127 277 112 275 q 61 266 30 227 q 14 205 7 176 q 0 147 5 127 q 11 108 29 104 q 63 97 107 150 q 121 167 135 185 l 96 91 q 94 86 96 82 q 98 77 103 75 q 105 74 108 74 z m 120 250 l 120 250 q 125 250 128 248 q 132 246 134 243 q 135 240 136 239 q 136 236 138 234 q 113 197 87 166 q 67 142 54 134 q 40 126 34 128 q 34 128 33 129 q 32 129 31 130 q 30 131 29 134 q 26 148 32 172 q 38 195 50 212 q 75 243 116 250 q 118 250 120 250 z"},"1":{"x_min":0,"x_max":281,"ha":281,"o":"m 14 7 l 14 7 q 21 7 25 15 l 254 557 q 257 566 250 572 q 242 578 234 573 l 145 510 q 140 506 139 501 q 139 497 142 492 q 146 488 150 487 q 155 486 160 489 l 212 526 l 2 25 q 0 21 2 16 q 4 11 9 8 q 12 7 14 7 z"},"5":{"x_min":0,"x_max":488,"ha":488,"o":"m 122 2 l 122 2 q 192 2 277 56 q 341 103 367 163 q 393 224 392 257 q 393 288 369 325 q 346 362 284 375 q 243 380 198 363 q 152 346 119 326 q 152 396 180 458 q 208 521 217 550 l 452 565 q 458 565 461 569 q 464 573 464 579 q 463 584 459 587 q 456 590 450 590 l 207 575 q 201 575 197 571 q 194 567 194 562 q 191 544 156 466 q 121 388 77 297 q 75 293 76 289 q 77 285 80 282 q 83 279 88 279 q 92 279 96 282 q 97 282 115 294 q 134 306 163 320 q 191 335 223 344 q 254 354 280 350 q 311 345 329 331 q 346 317 354 302 q 362 286 365 273 q 367 260 366 257 q 367 231 344 176 q 321 120 263 77 q 130 -6 54 49 q 39 62 33 69 q 27 76 26 78 q 26 83 23 87 q 19 91 14 91 q 9 91 5 87 q 0 83 0 77 q 0 72 7 61 q 14 51 38 30 q 71 2 122 2 z m 22 69 l 22 69 l 22 69 z m 22 69 l 22 69 q 22 69 22 69 q 22 69 22 69 z m 22 69 l 22 69 l 22 69 z m 22 69 l 22 69 l 22 69 z m 22 69 l 22 69 q 22 69 22 69 q 22 69 22 69 z m 22 69 l 22 69 l 22 69 z m 22 69 l 22 69 q 22 69 22 69 q 22 69 22 69 z m 195 561 l 195 561 q 195 561 195 561 q 195 561 195 561 z m 51 487 l 51 487 q 51 487 51 487 q 51 487 51 487 z"}}}
